<svg width="436" height="334" viewBox="0 0 436 334" fill="none" xmlns="http://www.w3.org/2000/svg">
<g clip-path="url(#clip0_199_3410)">
<path d="M406.502 287.921L407.248 271.131C415.017 266.97 423.682 264.772 432.492 264.729C420.367 274.66 421.882 293.805 413.662 307.161C411.067 311.307 407.573 314.815 403.441 317.424C399.309 320.033 394.643 321.677 389.79 322.234L379.644 328.459C378.252 320.682 378.559 312.696 380.544 305.05C382.529 297.404 386.145 290.279 391.142 284.168C393.979 280.768 397.233 277.739 400.826 275.153C403.256 281.573 406.502 287.921 406.502 287.921Z" fill="#F2F2F2"/>
<path d="M252.645 332.638C247.477 332.27 246.129 333.291 238.311 332.638H223.977L225.841 298.269L248.407 307.329L360.548 310.087L360.482 310.278C360.431 310.424 355.453 325.016 359.344 330.542L359.506 330.771L359.191 330.774L256.319 331.719C255.196 331.729 253.759 332.718 252.645 332.638Z" fill="#F2F2F2"/>
<path d="M258.462 333.088C248.479 332.376 238.142 336.265 229.515 331.875L222.618 332.293L222.599 332.235C222.545 332.076 219.288 306.393 225.873 296.435L226.163 295.997L226.39 298.355L224.219 330.349L229.031 328.739C240.718 334.251 254.617 330.611 267.993 330.56L359.024 330.223C360.931 330.217 362.519 331.522 362.57 333.134L362.575 333.291L263.96 333.284C262.121 333.284 260.288 333.218 258.462 333.088Z" fill="#CCCCCC"/>
<path d="M354.225 317.018L251.784 314.978L251.679 314.939L227.476 305.851L227.934 304.628L252.033 313.678L354.251 315.713L354.225 317.018Z" fill="#E6E6E6"/>
<path d="M353.679 322.515L251.238 320.474L251.133 320.435L226.93 311.347L227.387 310.124L251.487 319.174L353.705 321.209L353.679 322.515Z" fill="#E6E6E6"/>
<path d="M353.132 328.011L250.691 325.971L250.587 325.932L226.383 316.842L226.84 315.62L250.94 324.67L353.158 326.706L353.132 328.011Z" fill="#E6E6E6"/>
<path d="M259.169 310.442C249.671 309.799 240.411 307.181 231.978 302.755L224.877 298.981L225.063 297.116C225.115 296.842 225.266 296.597 225.487 296.428C225.708 296.259 225.984 296.178 226.261 296.2L226.887 296.208L322.423 297.617C328.676 297.695 334.871 298.821 340.753 300.95L361.568 308.522L361.557 308.632C361.383 310.39 359.614 311.748 357.531 311.723L263.425 310.618C262.002 310.602 260.583 310.543 259.169 310.442Z" fill="#E6E6E6"/>
<path d="M361.368 308.926L361.347 308.925L246.782 306.295L246.703 306.258L226.048 296.674L226.257 296.354L226.885 296.361L246.974 305.688L360.476 308.291L361.386 308.312L361.368 308.926Z" fill="#CCCCCC"/>
<path d="M272.305 297.032L270.85 297.012L238.018 296.525L236.462 296.503C243.964 304.506 260.551 306.508 284.864 303.408L272.305 297.032Z" fill="#CCCCCC"/>
<path d="M364.615 105.635L366.618 110.303L363.345 126.882L329.949 122.23L330.216 102.014L330.886 97.5864L364.615 105.635Z" fill="#FFB6B6"/>
<path d="M381.869 320.496H374.501L370.994 292.023H381.869V320.496Z" fill="#FFB6B6"/>
<path d="M359.953 330.133C359.954 330.969 360.286 331.771 360.876 332.362C361.466 332.954 362.266 333.286 363.101 333.287H377.118L379.534 328.289L380.472 333.287H385.755L384.27 315.437L381.869 315.297L373.8 314.815L372.5 314.734V319.79L361.313 327.534C360.893 327.825 360.55 328.213 360.313 328.666C360.077 329.118 359.953 329.622 359.953 330.133Z" fill="#2F2E41"/>
<path d="M313.77 287.855H306.402L302.068 245.936L315.912 245.107L313.77 287.855Z" fill="#FFB6B6"/>
<path d="M291.854 297.492C291.855 298.328 292.187 299.13 292.777 299.722C293.367 300.313 294.167 300.645 295.002 300.646H309.019L311.435 295.649L312.373 300.646H317.656L316.171 282.797L314.028 282.671L305.819 282.175L304.4 282.093V287.15L293.214 294.894C292.794 295.184 292.451 295.573 292.214 296.025C291.978 296.478 291.854 296.981 291.854 297.492Z" fill="#2F2E41"/>
<path d="M384.996 295.942H384.967L383.55 249.645C384.467 247.873 384.933 245.901 384.905 243.906C384.877 241.91 384.358 239.951 383.392 238.205L383.189 237.838L383.715 235.395C384.391 232.256 384.081 228.985 382.828 226.029L381.506 182.843C386.228 152.178 363.722 132.179 363.722 132.179L365.791 116.106L329.388 116.935L330.008 132.179L322.769 157.095C318.96 194.28 293.323 217.652 297.22 253.211C297.228 253.313 297.213 253.415 297.176 253.511C296.78 254.715 296.641 255.99 296.767 257.251C296.893 258.513 297.281 259.734 297.907 260.837C298.069 261.118 298.181 261.426 298.237 261.746C299.04 267.979 299.144 260.094 300.208 266.273L300.001 266.377C299.256 266.635 298.936 267.67 299.287 268.688C299.638 269.707 300.526 270.324 301.272 270.066L320.732 270.274C321.477 270.016 321.797 268.982 321.446 267.963C321.095 266.945 320.206 266.328 319.461 266.586L318.25 267.199L320.276 260.56L320.986 259.896C321.326 259.577 321.59 259.186 321.758 258.751C321.926 258.317 321.993 257.849 321.956 257.385C321.918 256.92 321.776 256.47 321.54 256.068C321.304 255.666 320.98 255.323 320.593 255.064L322.611 244.274L322.324 236.114L322.915 226.857L348.448 189.786L358.779 240.992L369.331 296.458C369.084 296.68 368.899 296.962 368.793 297.277C368.687 297.592 368.664 297.928 368.725 298.255C368.822 298.711 369.075 299.119 369.439 299.409C369.804 299.699 370.257 299.853 370.723 299.844H385.047C385.348 299.844 385.644 299.774 385.913 299.64C386.182 299.507 386.417 299.312 386.598 299.073C386.78 298.833 386.905 298.555 386.961 298.26C387.018 297.964 387.006 297.659 386.926 297.369C386.806 296.952 386.551 296.586 386.202 296.329C385.853 296.071 385.43 295.935 384.996 295.942Z" fill="#2F2E41"/>
<path d="M372.257 26.8571C372.258 29.813 371.535 32.7239 370.152 35.3344C368.768 37.9449 366.765 40.1752 364.32 41.8293C361.876 43.4835 359.063 44.511 356.129 44.8217C353.195 45.1324 350.23 44.7168 347.494 43.6113C344.758 42.5058 342.335 40.7443 340.437 38.4814C338.539 36.2184 337.224 33.5233 336.609 30.6325C335.993 27.7417 336.095 24.7437 336.905 21.9016C337.716 19.0595 339.211 16.4603 341.258 14.332L341.345 14.2455C341.489 14.0937 341.633 13.942 341.784 13.7975L341.787 13.797L341.789 13.7954L341.791 13.7931L341.792 13.7903C341.998 13.6391 342.189 13.4673 342.361 13.2775C344.794 9.87103 347.553 7.01468 354.235 8.79915C363.854 11.3682 372.257 16.8818 372.257 26.8571Z" fill="#2F2E41"/>
<path d="M273.254 19.1268C273.213 20.0929 273.384 21.0563 273.755 21.949C274.126 22.8418 274.688 23.6422 275.401 24.2938C276.114 24.9455 276.961 25.4326 277.882 25.7208C278.803 26.009 279.777 26.0913 280.733 25.9619L327.213 64.1821L334.313 51.6793L286.392 18.0415C286.068 16.446 285.172 15.0248 283.873 14.0472C282.573 13.0696 280.961 12.6036 279.342 12.7373C277.722 12.8711 276.208 13.5954 275.086 14.7731C273.964 15.9507 273.312 17.4998 273.254 19.1268Z" fill="#FFB6B6"/>
<path d="M346.839 75.4536C346.839 75.4536 346.825 74.0771 339.436 74.13C330.264 74.1957 305.004 61.0024 307.214 48.5772C306.165 49.0521 304.988 49.1639 303.868 48.8949C302.749 48.6258 301.751 47.9913 301.031 47.0912L313.328 35.2285C317.187 35.4896 317.226 38.0768 316.896 39.5624L326.779 43.4971L352.519 58.3142L347.974 73.1976L346.839 75.4536Z" fill="#6C63FF"/>
<path d="M349.794 46.1773C358.141 46.1773 364.907 39.3979 364.907 31.035C364.907 22.6721 358.141 15.8926 349.794 15.8926C341.447 15.8926 334.681 22.6721 334.681 31.035C334.681 39.3979 341.447 46.1773 349.794 46.1773Z" fill="#FFB7B7"/>
<path d="M329.023 106.352C328.188 107.468 327.762 108.838 327.816 110.232C327.87 111.626 328.4 112.959 329.319 114.007C329.326 114.451 329.393 114.881 330.021 116.472C330.103 116.627 330.199 116.773 330.309 116.909C330.329 116.942 330.351 116.974 330.375 117.005C331.037 117.863 331.957 118.483 332.998 118.775L360.663 126.511L364.32 127.533L364.963 127.711L365.318 122.706C366.14 122.023 366.691 121.067 366.872 120.012C367.052 118.957 366.849 117.872 366.3 116.953L365.791 116.109L368.761 108.106L369.049 107.314L376.623 86.8885L376.63 85.5262L376.645 84.1196L376.719 74.3028C376.722 71.2088 376.01 68.1561 374.639 65.3841C373.267 62.6122 371.273 60.1964 368.813 58.3263C366.572 56.6108 363.989 55.3988 361.239 54.7727L361.18 54.7653L358.187 50.7305L346.047 51.9446L345.042 54.0102L343.823 56.4977L335.023 61.7467L332.016 68.7502L329.984 73.4884C326.836 75.7539 324.959 78.6634 324.42 82.1281C323.267 89.4871 328.41 96.8534 329.023 97.6974L329.178 106.145L329.023 106.352Z" fill="#6C63FF"/>
<path d="M365.611 35.0047C365.474 34.983 365.337 34.9541 365.2 34.9324C362.842 34.5135 360.485 34.1018 358.135 33.6756L357.918 28.3377L355.071 33.1194C348.575 35.2791 342.498 34.0584 336.781 31.3642C334.895 30.4673 333.066 29.4566 331.302 28.3377C330.721 19.3102 334.364 13.5308 341.143 14.1369C341.39 14.1591 341.568 13.9058 341.784 13.7974L341.787 13.7969L341.789 13.7953L341.791 13.7929L341.791 13.7901C342.159 13.6168 342.534 13.4507 342.909 13.299C345.844 12.1498 349.044 11.8588 352.137 12.4598C355.231 13.0607 358.09 14.529 360.384 16.6939C364.998 21.1073 367.074 28.3955 365.611 35.0047Z" fill="#2F2E41"/>
<path d="M365.2 34.9324C365.2 34.9324 360.723 18.1891 341.532 14.3246C341.51 14.3175 341.438 14.2886 341.345 14.2453C341.287 14.2091 341.215 14.173 341.143 14.1369C341.359 14.0141 341.568 13.9058 341.784 13.7973L341.787 13.7968L341.79 13.7953L341.791 13.7929L341.792 13.7901C341.979 13.6168 342.167 13.4434 342.361 13.2773L342.909 13.299C342.909 13.299 362.165 10.2436 365.2 34.9324Z" fill="#FD6584"/>
<path d="M372.582 140.479C372.227 140.783 371.795 140.984 371.333 141.058C370.872 141.133 370.399 141.079 369.966 140.903C369.104 140.537 368.339 139.976 367.73 139.264C365.244 136.651 363.468 133.444 362.571 129.948L363.4 128.47C363.074 126.648 363.38 124.769 364.268 123.145C365.155 121.521 366.57 120.25 368.277 119.543C369.249 119.13 370.326 119.036 371.354 119.275C371.863 119.401 372.33 119.664 372.703 120.034C373.076 120.405 373.342 120.869 373.474 121.379C373.793 122.96 372.479 124.387 371.148 125.294C368.829 126.871 366.149 127.832 363.358 128.087C366.772 130.015 369.723 132.668 372.004 135.861C372.531 136.527 372.92 137.292 373.148 138.111C373.257 138.521 373.262 138.953 373.164 139.366C373.065 139.78 372.865 140.162 372.582 140.479Z" fill="#2F2E41"/>
<path d="M181.552 333.824H435.187C435.403 333.824 435.61 333.738 435.762 333.586C435.914 333.433 436 333.226 436 333.01C436 332.794 435.914 332.587 435.762 332.434C435.61 332.282 435.403 332.196 435.187 332.196H181.552C181.337 332.196 181.13 332.282 180.977 332.434C180.825 332.587 180.74 332.794 180.74 333.01C180.74 333.226 180.825 333.433 180.977 333.586C181.13 333.738 181.337 333.824 181.552 333.824Z" fill="#CCCCCC"/>
<path d="M248.912 124.537V124.963C247.999 123.89 247.067 122.827 246.144 121.763C245.756 121.32 245.369 120.876 244.981 120.432C243.338 118.564 241.686 116.702 240.025 114.847C238.355 112.998 236.684 111.148 234.995 109.308C234.589 108.864 234.183 108.421 233.768 107.977C233.436 107.604 233.075 107.257 232.688 106.941C232.299 106.616 231.851 106.368 231.369 106.211C230.814 106.057 230.229 106.05 229.671 106.192C229.034 106.34 228.425 106.571 227.807 106.765C227.17 106.978 226.542 107.182 225.905 107.385C224.632 107.801 223.368 108.217 222.094 108.633C222.079 108.64 222.062 108.643 222.046 108.643C222.029 108.642 222.013 108.639 221.997 108.633C221.982 108.626 221.968 108.617 221.957 108.605C221.945 108.593 221.936 108.579 221.93 108.564L221.928 108.559C221.921 108.542 221.917 108.523 221.918 108.504C221.919 108.485 221.924 108.466 221.933 108.45C221.942 108.433 221.954 108.418 221.969 108.407C221.984 108.395 222.002 108.387 222.02 108.384C222.334 108.282 222.657 108.18 222.98 108.078C224.263 107.653 225.536 107.237 226.819 106.821C227.456 106.608 228.092 106.405 228.729 106.201C229.32 105.977 229.944 105.852 230.575 105.832C231.606 105.906 232.573 106.36 233.288 107.108C233.685 107.477 234.045 107.866 234.405 108.263C234.829 108.726 235.254 109.188 235.679 109.65C237.386 111.518 239.081 113.392 240.763 115.272C242.452 117.159 244.126 119.048 245.784 120.94C245.904 121.079 246.024 121.218 246.144 121.357C247.076 122.411 247.989 123.474 248.912 124.537Z" fill="white"/>
<path d="M232.545 108.645C232.197 108.195 231.732 107.849 231.201 107.644L230.677 107.662C234.795 114.084 240.192 119.586 246.528 123.825C241.867 118.765 237.206 113.705 232.545 108.645Z" fill="white"/>
<path d="M318.504 175.382L297.597 63.2222C297.239 61.3733 296.265 59.701 294.835 58.4795C293.404 57.258 291.601 56.5598 289.723 56.4994C289.554 56.4956 289.385 56.4956 289.216 56.4994L274.973 57.0113L273.441 57.0677L266.333 57.3237L264.8 57.3764L260.228 57.542L168.035 60.8583C167.896 60.8658 167.753 60.8658 167.614 60.862L146.956 60.4291L139.31 60.271L139.066 60.2673L133.423 60.1468L84.2541 59.123L71.2179 58.8482L64.7899 58.7164L63.2497 58.6826L55.9201 58.532L54.3836 58.4981L46.8849 58.3438L45.3483 58.3099L37.1096 58.1367L35.8173 58.1104L28.4689 57.9561L27.3081 57.9335H27.139C25.1882 57.9414 23.3029 58.6402 21.8166 59.9063C20.3303 61.1723 19.3385 62.9241 19.0167 64.852L0.108584 181.239C-0.0834266 182.418 -0.0173196 183.625 0.302311 184.776C0.621942 185.927 1.18744 186.994 1.95968 187.905C2.73191 188.815 3.69239 189.546 4.77459 190.047C5.85678 190.548 7.03482 190.808 8.22709 190.808H116.815C118.413 190.812 119.968 191.327 121.255 192.276L123.314 193.804C124.733 194.851 126.447 195.417 128.209 195.423C149.181 189.877 171.231 189.877 192.203 195.423C193.284 195.426 194.355 195.213 195.354 194.799C196.353 194.384 197.26 193.775 198.022 193.006C199.326 191.7 201.065 190.924 202.906 190.827L310.847 185.128C312.018 185.067 313.162 184.755 314.203 184.215C315.243 183.675 316.157 182.918 316.882 181.995C317.607 181.072 318.126 180.005 318.406 178.864C318.686 177.724 318.719 176.537 318.504 175.382Z" fill="#CCCCCC"/>
<path d="M288.923 157.892C288.785 161.693 287.146 165.283 284.366 167.874C281.586 170.464 277.894 171.842 274.101 171.706C267.833 171.484 260.353 171.373 252.235 171.543C225.723 172.111 192.416 175.767 172.381 188.914C169.863 190.57 166.887 191.388 163.878 191.251C163.657 191.238 163.442 191.225 163.22 191.206C160.1 190.92 157.161 189.615 154.854 187.491C143.817 177.373 118.504 165.119 60.562 164.257C60.3209 164.257 60.0864 164.244 59.8518 164.231C57.9751 164.113 56.1401 163.625 54.4517 162.796C52.7632 161.967 51.2544 160.812 50.0116 159.398C48.7687 157.984 47.8161 156.339 47.2083 154.556C46.6004 152.773 46.3492 150.888 46.469 149.008L52.1635 58.4553L53.0171 44.8832L54.5156 21.1402C54.6668 18.7491 55.7207 16.5054 57.4634 14.8648C59.2061 13.2242 61.5067 12.3099 63.8979 12.3076H63.9566L98.4756 12.51C113.018 13.1693 125.063 15.0255 134.611 18.0785C137.872 19.0918 141.045 20.3713 144.097 21.9041C148.266 23.9293 152.012 26.732 155.134 30.1622C157.079 32.3535 159.732 33.7887 162.627 34.2162C163.076 34.2834 163.529 34.3248 163.982 34.3402C166.653 34.4509 169.287 33.6954 171.495 32.1859C194.045 17.0471 239.998 15.8981 265.376 16.551C268.925 16.6339 272.317 18.0376 274.889 20.4886C277.462 22.9396 279.032 26.2624 279.293 29.8097L280.323 43.3165L281.346 56.7841L287.249 134.62L288.891 156.273C288.931 156.812 288.942 157.353 288.923 157.892Z" fill="#F2F2F2"/>
<path d="M69.1498 44.1713C89.9518 37.5216 113.159 39.2821 132.866 48.6502C138.489 51.3094 143.8 54.5865 148.7 58.4214C150.086 59.5114 152.059 57.5616 150.658 56.4599C132.557 42.3932 109.814 35.7109 86.9981 37.7555C80.6859 38.3214 74.4542 39.5759 68.4137 41.4965C66.7227 42.037 67.4455 44.7162 69.1498 44.1713Z" fill="#3F3D56"/>
<path d="M183.616 59.4973C202.957 49.3119 226.116 47.0908 247.145 52.8724C253.14 54.5168 258.933 56.8248 264.419 59.7539C265.99 60.594 267.39 58.2003 265.816 57.3587C245.774 46.6438 221.716 44.1772 199.831 50.1501C193.726 51.8193 187.82 54.1504 182.219 57.102C180.641 57.9329 182.039 60.3279 183.616 59.4973Z" fill="#3F3D56"/>
<path d="M183.616 77.9904C202.957 67.805 226.116 65.5839 247.145 71.3656C253.14 73.01 258.933 75.318 264.419 78.2471C265.99 79.0872 267.39 76.6935 265.816 75.8518C245.774 65.137 221.717 62.6704 199.831 68.6433C193.726 70.3125 187.82 72.6436 182.219 75.5952C180.641 76.426 182.039 78.8211 183.616 77.9904Z" fill="#3F3D56"/>
<path d="M266.493 95.4917C266.508 95.2536 266.451 95.0166 266.329 94.8116C266.207 94.6065 266.027 94.4429 265.811 94.3419C249.756 85.9185 231.552 82.5021 213.543 84.5324C213.43 84.5414 213.326 84.5595 213.204 84.5686H213.199C213.088 84.5785 212.978 84.5952 212.869 84.6184C202.158 85.8534 191.766 89.0625 182.219 94.0839C182.011 94.2081 181.839 94.3844 181.719 94.5955C181.6 94.8066 181.537 95.0453 181.537 95.288V129.787C181.541 129.999 181.592 130.208 181.688 130.397C181.784 130.586 181.921 130.751 182.09 130.88C182.259 131.008 182.455 131.096 182.663 131.137C182.871 131.178 183.085 131.172 183.29 131.118C183.715 130.995 184.139 130.878 184.573 130.764C194.225 128.147 204.133 126.594 214.121 126.134C214.333 126.124 214.545 126.115 214.767 126.106C222.902 125.756 231.052 126.05 239.141 126.984C239.311 126.994 239.48 127.012 239.647 127.039C240.063 127.084 240.488 127.134 240.903 127.188C241.071 127.206 241.229 127.224 241.382 127.252C243 127.455 244.604 127.686 246.212 127.935C248.534 128.306 250.856 128.72 253.179 129.175C253.323 129.203 253.472 129.239 253.621 129.266C257.349 130.008 261.058 130.868 264.749 131.819C264.955 131.872 265.17 131.878 265.378 131.836C265.586 131.794 265.782 131.705 265.95 131.576C266.119 131.447 266.257 131.281 266.352 131.091C266.448 130.901 266.499 130.692 266.502 130.479V95.546C266.504 95.5274 266.501 95.5088 266.493 95.4917Z" fill="#3F3D56"/>
<path d="M215.713 86.4133C214.699 85.9156 213.536 85.8132 212.451 86.1262C211.971 86.3063 211.533 86.58 211.16 86.9315C210.787 87.283 210.487 87.7052 210.278 88.1736C209.902 89.0718 209.661 90.0209 209.563 90.9899C209.506 91.3711 209.502 91.8521 209.884 92.03C210.023 92.0805 210.173 92.092 210.318 92.0633C210.463 92.0345 210.597 91.9667 210.706 91.867C210.904 91.672 211.066 91.4445 211.187 91.1944C211.851 90.1594 212.765 89.3087 213.844 88.721C214.923 88.1333 216.132 87.8275 217.36 87.8319L218.382 88.2401C217.578 87.5144 216.68 86.9 215.713 86.4133Z" fill="#FF6582"/>
<path d="M226.775 94.3649C225.982 93.1949 225.042 91.9457 223.57 91.5636C221.866 91.1212 220.115 92.0001 218.629 92.8674C214.212 95.4447 209.935 98.2553 205.816 101.287L205.82 101.333L215.382 100.745C217.685 100.603 220.067 100.442 222.102 99.4703C222.832 99.0113 223.649 98.7066 224.502 98.5749C225.03 98.6036 225.548 98.7369 226.026 98.9673C226.503 99.1976 226.93 99.5204 227.282 99.9169C231.688 104.102 232.964 110.502 237.907 114.178C234.761 107.271 231.037 100.643 226.775 94.3649Z" fill="white"/>
<path d="M214.768 126.106C214.547 126.115 214.335 126.124 214.122 126.133C212.581 125.579 211.003 125.089 209.407 124.663C208.373 124.386 207.321 124.136 206.269 123.924C205.078 123.665 203.879 123.461 202.679 123.285C200.395 122.953 198.093 122.758 195.785 122.703C195.768 122.705 195.75 122.703 195.733 122.698C195.717 122.692 195.701 122.683 195.688 122.672C195.675 122.66 195.665 122.645 195.657 122.629C195.65 122.613 195.646 122.596 195.646 122.578C195.646 122.561 195.65 122.543 195.657 122.527C195.665 122.511 195.675 122.497 195.688 122.485C195.701 122.473 195.717 122.464 195.733 122.459C195.75 122.453 195.768 122.451 195.785 122.453C196.08 122.453 196.376 122.463 196.662 122.481C198.974 122.567 201.28 122.792 203.565 123.156C204.755 123.35 205.946 123.581 207.127 123.84C208.198 124.081 209.268 124.349 210.32 124.645C211.824 125.07 213.307 125.557 214.768 126.106Z" fill="white"/>
<path d="M241.384 127.252C241.227 127.225 241.07 127.206 240.904 127.188C240.267 126.661 239.621 126.161 238.948 125.671C238.108 125.061 237.24 124.488 236.354 123.952C234.392 122.758 232.344 121.713 230.226 120.826C226.879 119.429 223.414 118.334 219.872 117.553C215.832 116.666 211.743 116.024 207.626 115.63C203.51 115.204 199.375 114.945 195.241 114.686C195.066 114.677 195.056 114.418 195.241 114.427C195.758 114.464 196.275 114.492 196.8 114.529C200.981 114.788 205.162 115.084 209.315 115.556C213.432 115.998 217.517 116.708 221.542 117.682C224.979 118.531 228.333 119.685 231.565 121.131C233.423 121.968 235.224 122.929 236.954 124.007C238.052 124.7 239.114 125.44 240.129 126.226C240.553 126.559 240.978 126.892 241.384 127.252Z" fill="white"/>
<path d="M239.649 127.04C239.481 127.013 239.311 126.994 239.141 126.984C238.948 126.827 238.744 126.679 238.542 126.531C237.121 125.512 235.638 124.583 234.103 123.748C232.708 122.988 231.275 122.3 229.811 121.686C226.465 120.285 222.999 119.19 219.457 118.413C215.417 117.526 211.327 116.884 207.21 116.489C203.094 116.064 198.96 115.805 194.826 115.546C194.65 115.528 194.65 115.278 194.826 115.287C195.352 115.324 195.868 115.352 196.385 115.389C200.566 115.648 204.746 115.944 208.899 116.415C213.017 116.858 217.102 117.568 221.127 118.542C224.564 119.389 227.918 120.543 231.149 121.991C232.367 122.546 233.558 123.147 234.721 123.803C236.445 124.752 238.093 125.834 239.649 127.04Z" fill="white"/>
<path d="M253.621 129.268C253.473 129.24 253.325 129.204 253.178 129.176C253.012 129 252.855 128.815 252.698 128.63C251.904 127.715 251.12 126.79 250.345 125.856C247.29 122.213 244.392 118.459 241.661 114.631C239.317 111.358 237.092 108.02 234.988 104.617C233.982 103.008 233.013 101.381 232.063 99.7346C231.325 98.4587 230.605 97.1796 229.903 95.8974C229.7 95.5275 229.507 95.1576 229.313 94.7877C228.86 93.9185 228.408 93.0401 227.929 92.1802C227.407 91.1267 226.641 90.2135 225.695 89.5172C225.222 89.2 224.675 89.012 224.108 88.9717C223.307 88.9746 222.521 89.178 221.819 89.5633C216.656 91.9725 211.785 94.9663 207.303 98.4863C202.924 101.898 198.965 105.819 195.508 110.165C195.398 110.294 195.158 110.174 195.259 110.035C195.674 109.518 196.099 109 196.523 108.491C199.846 104.554 203.587 100.991 207.681 97.8668C207.69 97.8576 207.708 97.8483 207.718 97.8392C208.078 97.5525 208.438 97.2751 208.807 97.007C211.092 95.3206 213.471 93.7647 215.931 92.3466C217.186 91.6161 218.469 90.9226 219.78 90.2662C220.102 90.0998 220.435 89.9333 220.767 89.7761C221.099 89.6097 221.432 89.4526 221.764 89.2952C222.421 88.9592 223.14 88.7611 223.877 88.7128C226.443 88.6758 227.762 91.2649 228.676 93.0124C228.962 93.558 229.257 94.1035 229.544 94.649C230.651 96.711 231.804 98.7638 233.004 100.789C233.733 102.046 234.49 103.295 235.256 104.534C236.354 106.3 237.48 108.047 238.652 109.786C238.652 109.787 238.652 109.788 238.653 109.789C238.653 109.79 238.654 109.791 238.655 109.792C238.655 109.793 238.656 109.794 238.657 109.794C238.659 109.795 238.66 109.795 238.661 109.795C240.017 111.848 241.43 113.863 242.888 115.87C245.389 119.3 248.01 122.654 250.751 125.93C251.692 127.058 252.649 128.171 253.621 129.268Z" fill="white"/>
<path d="M220.696 88.4307L220.441 88.5426C219.856 87.5532 219.036 86.724 218.055 86.1285C217.073 85.5331 215.96 85.1898 214.814 85.1293C211.036 84.8604 207.717 87.3832 207.415 90.7527C207.292 92.1401 207.693 93.5232 208.538 94.629L208.301 94.7694C207.421 93.6177 207.004 92.1774 207.131 90.7325C207.445 87.2237 210.902 84.5964 214.837 84.8764C216.03 84.9394 217.189 85.2969 218.211 85.9169C219.234 86.537 220.087 87.4005 220.696 88.4307Z" fill="#FF6582"/>
<path d="M202.027 95.2482C201.035 94.8161 199.955 94.6266 198.876 94.6954C197.797 94.7643 196.75 95.0894 195.821 95.644C199.212 96.1653 202.573 96.865 205.891 97.7402C204.518 97.0222 203.443 95.8973 202.027 95.2482Z" fill="white"/>
<path d="M195.802 95.6406L195.428 95.9113C195.555 95.8166 195.686 95.7277 195.821 95.6437L195.802 95.6406Z" fill="white"/>
<path d="M207.047 97.2106C206.898 97.0626 206.75 96.9146 206.6 96.7667C205.452 95.5141 204.068 94.4999 202.529 93.7817C201.745 93.4511 200.905 93.2773 200.055 93.2702C199.176 93.2907 198.307 93.4597 197.485 93.7699C197.098 93.9077 196.72 94.0642 196.347 94.2308C195.922 94.4219 195.504 94.6256 195.087 94.8311C194.306 95.2167 193.535 95.6192 192.774 96.0386C191.26 96.8732 189.793 97.7715 188.374 98.7335C187.638 99.2324 186.917 99.7476 186.212 100.279C185.556 100.773 184.913 101.28 184.283 101.8C184.149 101.911 183.948 101.732 184.082 101.621C184.248 101.483 184.416 101.346 184.584 101.211C185.058 100.829 185.54 100.454 186.029 100.086C186.921 99.415 187.836 98.7696 188.775 98.1501C190.234 97.1861 191.743 96.2875 193.303 95.4543C194.082 95.0383 194.872 94.6397 195.673 94.2587C195.915 94.1437 196.16 94.0312 196.407 93.9247C196.972 93.6708 197.555 93.4591 198.152 93.2913C199.007 93.0457 199.902 92.9673 200.787 93.0605C201.634 93.1688 202.456 93.4225 203.218 93.8105C204.726 94.6578 206.088 95.7453 207.248 97.0305C207.369 97.1522 207.169 97.3323 207.047 97.2106Z" fill="white"/>
<path d="M69.1498 62.6645C89.9518 56.0147 113.159 57.7753 132.866 67.1434C138.489 69.8025 143.8 73.0797 148.7 76.9145C150.086 78.0046 152.059 76.0548 150.658 74.953C132.557 60.8864 109.814 54.204 86.9981 56.2487C80.6859 56.8146 74.4542 58.069 68.4137 59.9896C66.7227 60.5302 67.4455 63.2093 69.1498 62.6645Z" fill="#3F3D56"/>
<path d="M69.1498 81.1577C89.9518 74.5079 113.159 76.2684 132.866 85.6366C138.489 88.2957 143.8 91.5729 148.7 95.4077C150.086 96.4977 152.059 94.548 150.658 93.4462C132.557 79.3795 109.814 72.6972 86.9981 74.7418C80.6859 75.3078 74.4543 76.5622 68.4137 78.4828C66.7227 79.0233 67.4455 81.7025 69.1498 81.1577Z" fill="#3F3D56"/>
<path d="M69.1498 99.6509C89.9518 93.0011 113.159 94.7616 132.866 104.13C138.489 106.789 143.8 110.066 148.7 113.901C150.086 114.991 152.059 113.041 150.658 111.939C132.557 97.8727 109.814 91.1904 86.9981 93.235C80.6859 93.8009 74.4542 95.0553 68.4137 96.976C66.7227 97.5165 67.4455 100.196 69.1498 99.6509Z" fill="#3F3D56"/>
<path d="M69.1498 118.144C89.9518 111.494 113.159 113.255 132.866 122.623C138.489 125.282 143.8 128.559 148.7 132.394C150.086 133.484 152.059 131.534 150.658 130.433C132.557 116.366 109.814 109.684 86.9981 111.728C80.6859 112.294 74.4542 113.549 68.4137 115.469C66.7227 116.01 67.4455 118.689 69.1498 118.144Z" fill="#3F3D56"/>
<path d="M69.1498 136.637C89.9518 129.987 113.159 131.748 132.866 141.116C138.489 143.775 143.8 147.052 148.7 150.887C150.086 151.977 152.059 150.027 150.658 148.926C132.557 134.859 109.814 128.177 86.9981 130.221C80.6859 130.787 74.4543 132.042 68.4137 133.962C66.7227 134.503 67.4455 137.182 69.1498 136.637Z" fill="#3F3D56"/>
<path d="M144.097 21.9036V66.2495C144.097 67.1308 142.559 67.8685 140.487 68.0709C140.47 68.0698 140.452 68.072 140.435 68.0774C140.09 68.1035 139.725 68.1231 139.354 68.1231C138.211 68.1441 137.075 67.9584 135.998 67.5748C135.9 67.5356 135.803 67.4899 135.705 67.4507C135.614 67.3985 135.516 67.3528 135.425 67.3006C134.91 66.9937 134.61 66.6347 134.61 66.2495V18.0781C137.872 19.0914 141.044 20.3708 144.097 21.9036Z" fill="#6C63FF"/>
<path d="M163.981 32.1895H162.626V190.324H163.981V32.1895Z" fill="#E6E6E6"/>
<path d="M311.375 140.443C312.337 140.355 313.267 140.057 314.1 139.57C314.934 139.083 315.651 138.418 316.201 137.623C316.75 136.829 317.119 135.923 317.282 134.969C317.444 134.016 317.396 133.039 317.141 132.106L345.273 118.948L362.21 91.4981L348.897 86.1128L337.471 108.233L308.553 127.542C307.017 128.075 305.731 129.154 304.937 130.575C304.143 131.995 303.897 133.658 304.245 135.249C304.593 136.839 305.511 138.246 306.825 139.204C308.139 140.161 309.758 140.602 311.375 140.443Z" fill="#FFB6B6"/>
<path d="M372.657 65.2014C372.657 65.2014 375.972 66.2858 372.334 72.7292C369.42 77.8877 355.229 107.601 349.437 113.435C350.046 114.414 350.313 115.568 350.196 116.715C350.079 117.863 349.584 118.938 348.79 119.773L335.418 109.141C335.163 105.275 337.717 104.891 339.23 105.021L342.307 94.0974L353.036 67.1499L370.274 64.375L372.657 65.2014Z" fill="#6C63FF"/>
<path d="M372.946 14.6937C373.578 12.1326 378.165 10.2415 370.308 6.66584C368.401 5.79806 368.48 2.8096 366.867 1.47126C365.255 0.132915 362.893 -0.487556 361.018 0.447892C359.344 1.28324 358.401 3.17368 358.2 5.03662C358.103 6.91162 358.319 8.78961 358.839 10.5935L358.687 10.8164C361.799 13.2025 364.911 15.5886 368.023 17.9746C369.167 18.8515 370.662 19.7696 371.943 19.1117C373.394 18.3669 372.555 16.2794 372.946 14.6937Z" fill="#2F2E41"/>
</g>
<defs>
<clipPath id="clip0_199_3410">
<rect width="436" height="334" fill="white"/>
</clipPath>
</defs>
</svg>
