<svg width="487" height="330" viewBox="0 0 487 330" fill="none" xmlns="http://www.w3.org/2000/svg">
<g clip-path="url(#clip0_192_585)">
<rect x="214.121" y="199.173" width="227.974" height="129.293" rx="10" fill="white"/>
<path d="M460.474 328.7C461.614 316.423 464.763 304.416 469.795 293.159C471.197 290.026 472.741 286.963 474.425 283.968C474.51 283.811 474.53 283.628 474.482 283.456C474.434 283.285 474.321 283.139 474.168 283.049C474.014 282.96 473.832 282.933 473.659 282.975C473.486 283.017 473.336 283.125 473.241 283.275C467.114 294.183 462.822 306.024 460.536 318.323C459.9 321.758 459.423 325.217 459.103 328.7C459.021 329.579 460.394 329.573 460.474 328.7Z" fill="#F2F2F2"/>
<path d="M477.748 286.167C482.545 286.167 486.435 282.278 486.435 277.48C486.435 272.682 482.545 268.793 477.748 268.793C472.95 268.793 469.06 272.682 469.06 277.48C469.06 282.278 472.95 286.167 477.748 286.167Z" fill="#F2F2F2"/>
<path d="M461.362 328.931C462.102 320.966 464.145 313.177 467.409 305.874C468.319 303.841 469.32 301.854 470.413 299.911C470.468 299.809 470.481 299.69 470.45 299.579C470.419 299.468 470.346 299.373 470.246 299.315C470.146 299.256 470.028 299.239 469.916 299.267C469.804 299.294 469.706 299.364 469.645 299.462C465.67 306.538 462.886 314.22 461.403 322.199C460.99 324.427 460.68 326.671 460.472 328.931C460.42 329.501 461.31 329.497 461.362 328.931Z" fill="#F2F2F2"/>
<path d="M472.569 301.338C475.681 301.338 478.205 298.815 478.205 295.702C478.205 292.59 475.681 290.066 472.569 290.066C469.456 290.066 466.933 292.59 466.933 295.702C466.933 298.815 469.456 301.338 472.569 301.338Z" fill="#F2F2F2"/>
<path d="M460.239 328.399C455.923 321.664 452.743 314.266 450.825 306.5C450.292 304.338 449.859 302.155 449.526 299.951C449.507 299.837 449.444 299.735 449.351 299.666C449.258 299.598 449.142 299.568 449.028 299.584C448.913 299.599 448.809 299.658 448.738 299.749C448.666 299.839 448.632 299.954 448.644 300.069C449.862 308.093 452.392 315.862 456.13 323.066C457.176 325.077 458.312 327.037 459.538 328.946C459.847 329.428 460.547 328.878 460.239 328.399Z" fill="#F2F2F2"/>
<path d="M448.637 300.942C451.75 300.942 454.273 298.419 454.273 295.307C454.273 292.194 451.75 289.671 448.637 289.671C445.524 289.671 443.001 292.194 443.001 295.307C443.001 298.419 445.524 300.942 448.637 300.942Z" fill="#F2F2F2"/>
<path d="M96.6488 328.7C95.5087 316.422 92.3599 304.416 87.3282 293.159C85.9258 290.026 84.3822 286.962 82.6976 283.967C82.613 283.811 82.5927 283.627 82.6408 283.456C82.6888 283.285 82.8016 283.139 82.9552 283.049C83.1089 282.959 83.2914 282.932 83.4643 282.975C83.6372 283.017 83.787 283.125 83.882 283.275C90.0086 294.183 94.3007 306.023 96.5867 318.323C97.2226 321.758 97.7005 325.217 98.0204 328.7C98.1018 329.579 96.7295 329.573 96.6488 328.7Z" fill="#F2F2F2"/>
<path d="M79.3759 286.167C84.1739 286.167 88.0634 282.278 88.0634 277.48C88.0634 272.682 84.1739 268.793 79.3759 268.793C74.578 268.793 70.6885 272.682 70.6885 277.48C70.6885 282.278 74.578 286.167 79.3759 286.167Z" fill="#F2F2F2"/>
<path d="M95.7601 328.931C95.0205 320.966 92.9778 313.177 89.7134 305.874C88.8036 303.841 87.8023 301.854 86.7093 299.911C86.6544 299.809 86.6411 299.69 86.6723 299.579C86.7034 299.468 86.7766 299.373 86.8763 299.315C86.9761 299.256 87.0946 299.239 87.2068 299.267C87.319 299.294 87.4162 299.364 87.4778 299.462C91.4524 306.538 94.2368 314.22 95.7199 322.199C96.1324 324.427 96.4425 326.671 96.65 328.931C96.7028 329.501 95.8125 329.497 95.7601 328.931Z" fill="#F2F2F2"/>
<path d="M84.5544 301.338C87.6671 301.338 90.1904 298.815 90.1904 295.702C90.1904 292.59 87.6671 290.066 84.5544 290.066C81.4418 290.066 78.9185 292.59 78.9185 295.702C78.9185 298.815 81.4418 301.338 84.5544 301.338Z" fill="#F2F2F2"/>
<path d="M96.8838 328.399C101.2 321.664 104.38 314.266 106.298 306.5C106.831 304.338 107.264 302.155 107.597 299.951C107.617 299.837 107.679 299.735 107.772 299.666C107.865 299.598 107.981 299.568 108.096 299.584C108.21 299.599 108.314 299.658 108.386 299.749C108.457 299.839 108.491 299.954 108.479 300.069C107.261 308.093 104.732 315.862 100.993 323.066C99.9475 325.077 98.8118 327.037 97.5855 328.946C97.2765 329.428 96.5768 328.878 96.8838 328.399Z" fill="#F2F2F2"/>
<path d="M108.486 300.942C111.599 300.942 114.122 298.419 114.122 295.307C114.122 292.194 111.599 289.671 108.486 289.671C105.373 289.671 102.85 292.194 102.85 295.307C102.85 298.419 105.373 300.942 108.486 300.942Z" fill="#F2F2F2"/>
<path d="M427.821 215.136L427.957 317.274C427.957 319.17 427.206 320.989 425.867 322.332C424.528 323.675 422.711 324.432 420.815 324.437L378.386 324.499C390.33 302.156 397.093 266.989 397.054 239.881C397.043 229.184 395.956 218.514 393.809 208.034L420.659 207.995C422.555 207.994 424.374 208.746 425.717 210.084C427.059 211.423 427.816 213.24 427.821 215.136Z" fill="#6C63FF"/>
<path d="M486.325 330H67.6386C67.4599 329.999 67.2886 329.928 67.1624 329.801C67.0362 329.675 66.9653 329.503 66.9653 329.325C66.9653 329.146 67.0362 328.974 67.1624 328.848C67.2886 328.721 67.4599 328.65 67.6386 328.649H486.325C486.504 328.649 486.676 328.721 486.802 328.847C486.929 328.974 487 329.146 487 329.325C487 329.504 486.929 329.675 486.802 329.802C486.676 329.929 486.504 330 486.325 330Z" fill="#3F3D56"/>
<path d="M365.646 201.176L290.03 200.879L297.383 176.417C297.97 174.496 299.156 172.812 300.769 171.613C302.381 170.414 304.335 169.763 306.345 169.754H306.381L349.54 169.923C351.556 169.94 353.513 170.603 355.123 171.816C356.733 173.028 357.912 174.725 358.485 176.657L365.646 201.176Z" fill="#3F3D56"/>
<path d="M407.86 192.805C405.755 192.805 403.735 193.642 402.246 195.13C400.757 196.619 399.921 198.639 399.921 200.744H415.8C415.8 198.639 414.963 196.619 413.474 195.13C411.985 193.642 409.966 192.805 407.86 192.805Z" fill="#6C63FF"/>
<path d="M432.245 329.47H223.553C220.997 329.467 218.546 328.451 216.739 326.643C214.932 324.836 213.915 322.386 213.912 319.83V209.818C213.915 207.262 214.932 204.811 216.739 203.004C218.546 201.197 220.997 200.18 223.553 200.177H432.245C434.801 200.18 437.252 201.197 439.059 203.004C440.867 204.811 441.883 207.262 441.886 209.818V319.83C441.883 322.386 440.867 324.836 439.059 326.643C437.252 328.451 434.801 329.467 432.245 329.47ZM223.553 201.311C221.298 201.314 219.135 202.211 217.541 203.806C215.946 205.4 215.049 207.562 215.046 209.818V319.83C215.049 322.085 215.946 324.247 217.541 325.842C219.135 327.436 221.298 328.333 223.553 328.336H432.245C434.501 328.333 436.663 327.436 438.258 325.842C439.852 324.247 440.749 322.085 440.752 319.83V209.818C440.749 207.562 439.852 205.4 438.258 203.806C436.663 202.211 434.501 201.314 432.245 201.311H223.553Z" fill="white"/>
<path d="M336.973 191.955H318.826C317.547 191.955 316.321 191.447 315.417 190.543C314.513 189.639 314.005 188.413 314.005 187.135C314.005 185.856 314.513 184.63 315.417 183.726C316.321 182.822 317.547 182.314 318.826 182.314H336.973C338.251 182.314 339.477 182.822 340.381 183.726C341.285 184.63 341.793 185.856 341.793 187.135C341.793 188.413 341.285 189.639 340.381 190.543C339.477 191.447 338.251 191.955 336.973 191.955Z" fill="white"/>
<path d="M327.899 307.921C319.375 307.921 311.042 305.394 303.954 300.658C296.866 295.922 291.342 289.192 288.08 281.316C284.818 273.441 283.964 264.776 285.627 256.416C287.29 248.056 291.395 240.376 297.423 234.349C303.451 228.322 311.13 224.217 319.491 222.554C327.851 220.891 336.517 221.745 344.392 225.007C352.268 228.269 358.999 233.793 363.735 240.88C368.471 247.967 370.998 256.3 370.998 264.824C370.986 276.25 366.441 287.205 358.361 295.284C350.281 303.364 339.326 307.908 327.899 307.921ZM327.899 222.86C319.599 222.86 311.485 225.321 304.584 229.932C297.683 234.543 292.304 241.097 289.128 248.765C285.952 256.433 285.121 264.87 286.74 273.01C288.359 281.151 292.356 288.628 298.225 294.496C304.094 300.365 311.571 304.362 319.712 305.981C327.852 307.6 336.29 306.769 343.958 303.593C351.627 300.417 358.181 295.038 362.792 288.137C367.403 281.237 369.864 273.123 369.864 264.824C369.852 253.698 365.426 243.032 357.559 235.165C349.692 227.298 339.025 222.873 327.899 222.86Z" fill="#3F3D56"/>
<path d="M327.899 293.177C322.291 293.177 316.809 291.514 312.146 288.399C307.483 285.283 303.849 280.855 301.703 275.674C299.557 270.493 298.995 264.792 300.089 259.292C301.183 253.792 303.884 248.74 307.849 244.774C311.815 240.809 316.867 238.109 322.368 237.015C327.868 235.921 333.569 236.482 338.75 238.628C343.932 240.774 348.36 244.408 351.476 249.071C354.591 253.734 356.254 259.216 356.254 264.823C356.246 272.341 353.256 279.548 347.94 284.863C342.624 290.179 335.417 293.169 327.899 293.177ZM327.899 237.604C322.516 237.604 317.253 239.2 312.776 242.191C308.3 245.182 304.811 249.433 302.751 254.407C300.69 259.381 300.151 264.854 301.202 270.134C302.252 275.414 304.845 280.264 308.651 284.071C312.458 287.877 317.309 290.47 322.589 291.52C327.869 292.57 333.342 292.031 338.316 289.971C343.29 287.911 347.542 284.422 350.533 279.946C353.524 275.47 355.12 270.207 355.12 264.823C355.112 257.607 352.241 250.688 347.138 245.585C342.035 240.482 335.116 237.612 327.899 237.604Z" fill="#3F3D56"/>
<path d="M327.899 286.373C339.801 286.373 349.449 276.725 349.449 264.824C349.449 252.923 339.801 243.275 327.899 243.275C315.998 243.275 306.35 252.923 306.35 264.824C306.35 276.725 315.998 286.373 327.899 286.373Z" fill="#CCCCCC"/>
<path d="M314.856 264.824C314.856 261.408 316.09 258.107 318.33 255.529C320.57 252.95 323.666 251.267 327.048 250.788C325.038 250.502 322.99 250.652 321.042 251.226C319.095 251.8 317.293 252.786 315.76 254.117C314.226 255.448 312.997 257.092 312.154 258.94C311.311 260.787 310.875 262.793 310.875 264.824C310.875 266.854 311.311 268.861 312.154 270.708C312.997 272.555 314.226 274.2 315.76 275.531C317.293 276.862 319.095 277.847 321.042 278.422C322.99 278.996 325.038 279.145 327.048 278.859C323.666 278.381 320.57 276.698 318.33 274.119C316.09 271.54 314.856 268.24 314.856 264.824Z" fill="white"/>
<path d="M422.038 201.311H393.683V200.744C393.683 196.984 395.176 193.378 397.835 190.72C400.494 188.061 404.1 186.567 407.86 186.567C411.62 186.567 415.226 188.061 417.885 190.72C420.544 193.378 422.038 196.984 422.038 200.744V201.311ZM394.829 200.177H420.891C420.745 196.819 419.308 193.648 416.88 191.323C414.453 188.999 411.221 187.702 407.86 187.702C404.499 187.702 401.268 188.999 398.84 191.323C396.412 193.648 394.975 196.819 394.829 200.177Z" fill="#3F3D56"/>
<path d="M228.089 217.189C226.968 217.189 225.871 216.857 224.939 216.233C224.006 215.61 223.279 214.725 222.85 213.689C222.421 212.652 222.309 211.512 222.527 210.412C222.746 209.312 223.286 208.302 224.079 207.509C224.873 206.716 225.883 206.175 226.983 205.957C228.083 205.738 229.223 205.85 230.26 206.279C231.296 206.709 232.182 207.435 232.805 208.368C233.428 209.3 233.76 210.397 233.76 211.518C233.759 213.022 233.161 214.463 232.098 215.526C231.034 216.589 229.593 217.187 228.089 217.189ZM228.089 206.982C227.192 206.982 226.315 207.248 225.569 207.746C224.823 208.245 224.241 208.953 223.898 209.782C223.555 210.611 223.465 211.523 223.64 212.403C223.815 213.283 224.247 214.092 224.881 214.726C225.516 215.361 226.324 215.793 227.204 215.968C228.084 216.143 228.997 216.053 229.826 215.71C230.655 215.366 231.363 214.785 231.862 214.039C232.36 213.293 232.626 212.416 232.626 211.518C232.625 210.316 232.146 209.163 231.296 208.312C230.445 207.462 229.292 206.983 228.089 206.982Z" fill="#3F3D56"/>
<path d="M228.089 214.354C229.655 214.354 230.925 213.085 230.925 211.519C230.925 209.953 229.655 208.684 228.089 208.684C226.523 208.684 225.254 209.953 225.254 211.519C225.254 213.085 226.523 214.354 228.089 214.354Z" fill="#6C63FF"/>
<path d="M242.835 214.354C244.401 214.354 245.67 213.085 245.67 211.519C245.67 209.953 244.401 208.684 242.835 208.684C241.269 208.684 239.999 209.953 239.999 211.519C239.999 213.085 241.269 214.354 242.835 214.354Z" fill="#CCCCCC"/>
<path d="M257.579 214.354C259.145 214.354 260.414 213.085 260.414 211.519C260.414 209.953 259.145 208.684 257.579 208.684C256.013 208.684 254.743 209.953 254.743 211.519C254.743 213.085 256.013 214.354 257.579 214.354Z" fill="#CCCCCC"/>
<path d="M242.835 217.189C241.713 217.189 240.617 216.857 239.684 216.233C238.751 215.61 238.024 214.725 237.595 213.689C237.166 212.652 237.054 211.512 237.273 210.412C237.491 209.312 238.031 208.302 238.825 207.509C239.618 206.716 240.628 206.175 241.728 205.957C242.828 205.738 243.969 205.85 245.005 206.279C246.041 206.709 246.927 207.435 247.55 208.368C248.173 209.3 248.506 210.397 248.506 211.518C248.504 213.022 247.906 214.463 246.843 215.526C245.78 216.589 244.338 217.187 242.835 217.189ZM242.835 206.982C241.937 206.982 241.06 207.248 240.314 207.746C239.568 208.245 238.986 208.953 238.643 209.782C238.3 210.611 238.21 211.523 238.385 212.403C238.56 213.283 238.992 214.092 239.627 214.726C240.261 215.361 241.069 215.793 241.949 215.968C242.83 216.143 243.742 216.053 244.571 215.71C245.4 215.366 246.108 214.785 246.607 214.039C247.105 213.293 247.371 212.416 247.371 211.518C247.37 210.316 246.892 209.163 246.041 208.312C245.191 207.462 244.037 206.983 242.835 206.982Z" fill="#3F3D56"/>
<path d="M257.579 217.189C256.457 217.189 255.361 216.857 254.428 216.233C253.495 215.61 252.769 214.725 252.339 213.689C251.91 212.652 251.798 211.512 252.017 210.412C252.236 209.312 252.776 208.302 253.569 207.509C254.362 206.716 255.372 206.175 256.472 205.957C257.572 205.738 258.713 205.85 259.749 206.279C260.785 206.709 261.671 207.435 262.294 208.368C262.917 209.3 263.25 210.397 263.25 211.518C263.248 213.022 262.65 214.463 261.587 215.526C260.524 216.589 259.082 217.187 257.579 217.189ZM257.579 206.982C256.681 206.982 255.804 207.248 255.058 207.746C254.312 208.245 253.731 208.953 253.387 209.782C253.044 210.611 252.954 211.523 253.129 212.403C253.304 213.283 253.736 214.092 254.371 214.726C255.005 215.361 255.814 215.793 256.694 215.968C257.574 216.143 258.486 216.053 259.315 215.71C260.144 215.366 260.852 214.785 261.351 214.039C261.849 213.293 262.116 212.416 262.116 211.518C262.114 210.316 261.636 209.163 260.785 208.312C259.935 207.462 258.782 206.983 257.579 206.982Z" fill="#3F3D56"/>
<path d="M288.202 249.441H214.479V250.576H288.202V249.441Z" fill="#3F3D56"/>
<path d="M286.371 272.267H214.479V273.401H286.371V272.267Z" fill="#3F3D56"/>
<path d="M441.319 249.441H367.596V250.576H441.319V249.441Z" fill="#3F3D56"/>
<path d="M441.19 272.267H369.298V273.401H441.19V272.267Z" fill="#3F3D56"/>
<path d="M154.719 137.502C150.121 135.39 147.098 129.35 147.27 123.393C147.442 117.436 150.577 111.865 154.9 109.024C157.008 107.674 159.419 106.868 161.915 106.679C164.411 106.491 166.915 106.925 169.202 107.943C173.843 109.919 180.073 110.457 182.862 115.366C185.005 119.139 184.233 127.555 182.716 131.75C181.404 135.376 178.197 137.419 175.069 138.562C171.608 139.816 167.917 140.312 164.247 140.016C160.577 139.721 157.013 138.641 153.797 136.849" fill="#2F2E41"/>
<path d="M126.679 322.499L120.067 320.348L125.217 293.824L134.975 296.999L126.679 322.499Z" fill="#FFB8B8"/>
<path d="M115.96 316.923L128.71 321.071L126.099 329.099L105.32 322.339C105.663 321.285 106.21 320.309 106.93 319.466C107.651 318.623 108.53 317.931 109.518 317.428C110.506 316.925 111.583 316.621 112.689 316.535C113.794 316.448 114.906 316.58 115.96 316.923Z" fill="#2F2E41"/>
<path d="M185.867 322.643L178.914 322.642L175.607 295.827L185.868 295.827L185.867 322.643Z" fill="#FFB8B8"/>
<path d="M173.948 320.656H187.357V329.098H165.506C165.506 327.99 165.724 326.892 166.148 325.868C166.573 324.843 167.195 323.913 167.979 323.129C168.763 322.345 169.693 321.723 170.717 321.299C171.742 320.875 172.84 320.656 173.948 320.656Z" fill="#2F2E41"/>
<path d="M185.517 311.675C185.475 311.675 185.433 311.674 185.391 311.672L177.687 311.305C177.038 311.273 176.426 310.995 175.975 310.528C175.523 310.062 175.266 309.44 175.257 308.791L174.213 232.581C174.21 232.392 174.144 232.21 174.026 232.062C173.908 231.914 173.744 231.81 173.561 231.766C173.377 231.722 173.184 231.74 173.011 231.818C172.839 231.896 172.698 232.029 172.61 232.197L131.802 309.568C131.549 310.053 131.146 310.443 130.653 310.68C130.16 310.917 129.604 310.989 129.067 310.885L121.4 309.424C121.039 309.356 120.697 309.21 120.397 308.997C120.098 308.783 119.848 308.508 119.665 308.189C119.481 307.871 119.369 307.516 119.336 307.15C119.302 306.784 119.348 306.415 119.471 306.069L149.204 221.829L151.492 196.909C151.543 196.328 151.792 195.782 152.199 195.364C152.606 194.946 153.144 194.68 153.724 194.613C162.387 193.549 174.493 186.45 179.296 183.448C179.59 183.262 179.92 183.139 180.265 183.087C180.61 183.035 180.961 183.055 181.298 183.146C181.638 183.238 181.956 183.398 182.232 183.617C182.508 183.836 182.736 184.109 182.903 184.419C194.472 205.918 198.897 230.542 195.536 254.723L188.041 309.469C187.96 310.08 187.66 310.642 187.195 311.048C186.731 311.454 186.134 311.677 185.517 311.675Z" fill="#2F2E41"/>
<path d="M164.778 143.355C172.471 143.355 178.707 137.12 178.707 129.427C178.707 121.735 172.471 115.5 164.778 115.5C157.086 115.5 150.85 121.735 150.85 129.427C150.85 137.12 157.086 143.355 164.778 143.355Z" fill="#FFB8B8"/>
<path d="M150.901 202.892L146.707 172.926C145.686 168.372 146.515 163.6 149.011 159.657C151.507 155.714 155.467 152.924 160.02 151.899C164.572 150.874 169.346 151.699 173.291 154.192C177.236 156.685 180.03 160.642 181.058 165.194C182.252 170.733 184.679 177.477 183.793 184.746C177.581 201.985 166.306 207.3 150.901 202.892Z" fill="#B3B3B3"/>
<path d="M169.332 156.392H159.124C158.447 156.392 157.798 156.122 157.32 155.644C156.842 155.166 156.573 154.517 156.572 153.841V150.438C156.573 149.762 156.842 149.113 157.32 148.634C157.798 148.156 158.447 147.887 159.124 147.886H169.332C170.008 147.887 170.657 148.156 171.135 148.634C171.614 149.113 171.883 149.762 171.883 150.438V153.841C171.883 154.517 171.614 155.166 171.135 155.644C170.657 156.122 170.008 156.392 169.332 156.392Z" fill="#B3B3B3"/>
<path d="M221.064 213.033C221.341 212.187 221.429 211.29 221.321 210.405C221.214 209.521 220.914 208.671 220.443 207.916C219.972 207.16 219.341 206.517 218.594 206.031C217.848 205.546 217.003 205.23 216.122 205.106L184.347 159.619L174.926 168.933L209.121 210.717C209.011 212.212 209.454 213.696 210.364 214.887C211.275 216.078 212.592 216.893 214.064 217.179C215.536 217.465 217.061 217.2 218.351 216.436C219.642 215.672 220.607 214.461 221.064 213.033Z" fill="#FFB8B8"/>
<path d="M194.287 173.534L182.813 181.194C182.486 181.411 182.116 181.556 181.729 181.619C181.341 181.681 180.945 181.659 180.567 181.554C180.188 181.449 179.837 181.264 179.537 181.011C179.236 180.759 178.994 180.444 178.826 180.089L172.949 167.654C171.844 165.978 171.449 163.932 171.85 161.964C172.252 159.997 173.417 158.269 175.09 157.159C176.763 156.05 178.808 155.648 180.777 156.043C182.745 156.439 184.477 157.598 185.592 159.268L194.796 169.429C195.059 169.72 195.257 170.065 195.375 170.439C195.493 170.813 195.529 171.208 195.481 171.598C195.433 171.988 195.301 172.362 195.095 172.696C194.889 173.03 194.613 173.316 194.287 173.534Z" fill="#B3B3B3"/>
<path d="M108.815 151.914C108.885 152.22 108.93 152.531 108.951 152.844L133.312 166.897L139.234 163.488L145.546 171.752L135.65 178.805C134.851 179.375 133.888 179.67 132.906 179.646C131.925 179.622 130.978 179.28 130.207 178.672L105.086 158.855C103.953 159.275 102.718 159.34 101.547 159.04C100.376 158.741 99.3231 158.093 98.5294 157.181C97.7358 156.269 97.2386 155.137 97.1039 153.936C96.9693 152.735 97.2036 151.521 97.7756 150.456C98.3477 149.391 99.2304 148.526 100.306 147.975C101.382 147.424 102.601 147.213 103.799 147.372C104.998 147.53 106.119 148.049 107.015 148.86C107.912 149.672 108.539 150.737 108.815 151.914Z" fill="#FFB8B8"/>
<path d="M140.393 177.109L134.272 164.745C134.098 164.393 134.001 164.008 133.99 163.616C133.978 163.224 134.051 162.833 134.203 162.472C134.356 162.11 134.584 161.785 134.874 161.52C135.163 161.255 135.506 161.055 135.88 160.934L148.967 156.704C150.772 155.823 152.853 155.694 154.753 156.345C156.653 156.996 158.217 158.373 159.103 160.176C159.989 161.978 160.124 164.058 159.478 165.96C158.833 167.862 157.459 169.43 155.659 170.321L144.399 178.141C144.076 178.365 143.709 178.516 143.323 178.585C142.936 178.655 142.54 178.64 142.159 178.542C141.779 178.444 141.425 178.265 141.12 178.018C140.815 177.771 140.567 177.46 140.393 177.109Z" fill="#B3B3B3"/>
<path d="M174.126 111.886C174.628 111.959 175.139 111.865 175.582 111.618C176.024 111.371 176.373 110.985 176.574 110.52C176.76 110.048 176.835 109.541 176.794 109.036C176.754 108.531 176.598 108.042 176.338 107.606C175.811 106.739 175.075 106.017 174.197 105.506C173.186 104.831 172.018 104.429 170.805 104.339C170.2 104.299 169.593 104.39 169.027 104.605C168.46 104.821 167.946 105.155 167.519 105.586C167.103 106.028 166.829 106.584 166.731 107.183C166.632 107.782 166.715 108.396 166.968 108.948C167.478 109.93 168.546 110.481 169.587 110.854C171.653 111.594 173.853 111.883 176.04 111.702" fill="#2F2E41"/>
<path d="M178.579 135.768C176.145 135.883 176.564 130.717 175.802 128.402C175.04 126.087 173.99 123.326 171.594 122.882C169.63 122.519 167.855 123.955 166.144 124.986C163.095 126.823 159.149 127.501 155.947 125.944C152.746 124.388 150.799 120.229 152.356 117.028C152.83 116.148 153.48 115.375 154.265 114.757C155.05 114.138 155.954 113.687 156.92 113.432C158.858 112.934 160.877 112.837 162.853 113.147C167.263 113.688 171.499 115.189 175.265 117.546C177.863 119.176 180.336 121.395 181.109 124.362C181.883 127.33 182.198 135.401 179.174 135.912L178.579 135.768Z" fill="#2F2E41"/>
<path d="M172.21 104.702C170.371 102.371 171.064 98.6978 173.207 96.643C175.351 94.5882 178.538 93.9478 181.495 94.2091C184.426 94.5043 187.227 95.5647 189.619 97.2841C192.01 99.0035 193.907 101.321 195.12 104.005C196.989 108.281 196.973 113.171 198.664 117.52C199.565 119.838 200.931 121.948 202.678 123.718C204.425 125.489 206.516 126.883 208.822 127.815C211.129 128.747 213.601 129.197 216.088 129.137C218.575 129.077 221.023 128.509 223.282 127.468C226.224 126.111 229.025 123.455 228.857 120.22C230.718 127.391 227.367 135.594 221.018 139.414C217.3 141.651 212.896 142.41 208.588 142.933C205.78 143.273 202.895 143.527 200.155 142.825C196.322 141.843 193.113 139.014 191.169 135.568C189.226 132.121 188.462 128.105 188.432 124.148C188.409 121.066 188.812 117.982 188.599 114.907C188.386 111.832 187.461 108.652 185.232 106.523C183.003 104.394 179.242 103.693 176.795 105.568C175.812 106.322 175.092 107.422 173.985 107.978C172.878 108.534 171.129 108.102 171.055 106.866L172.21 104.702Z" fill="#2F2E41"/>
<path d="M118.843 152.013H3.96142C2.91116 152.012 1.90427 151.594 1.16162 150.852C0.418973 150.109 0.00121872 149.102 0 148.052V83.3514C0.00122022 82.3012 0.418974 81.2943 1.16162 80.5517C1.90427 79.8091 2.91116 79.3914 3.96142 79.3901H118.843C119.893 79.3913 120.9 79.8091 121.643 80.5517C122.385 81.2943 122.803 82.3012 122.804 83.3514V148.052C122.803 149.102 122.385 150.109 121.643 150.852C120.9 151.594 119.893 152.012 118.843 152.013ZM3.96142 80.2704C3.14454 80.2713 2.36139 80.5962 1.78376 81.1738C1.20614 81.7514 0.88123 82.5345 0.880312 83.3514V148.052C0.88123 148.869 1.20614 149.652 1.78376 150.229C2.36139 150.807 3.14454 151.132 3.96142 151.133H118.843C119.66 151.132 120.443 150.807 121.02 150.229C121.598 149.652 121.923 148.869 121.924 148.052V83.3514C121.923 82.5346 121.598 81.7515 121.02 81.1739C120.443 80.5963 119.66 80.2714 118.843 80.2704H3.96142Z" fill="#3F3D56"/>
<path d="M41.8335 124.809C50.9061 124.809 58.2608 117.454 58.2608 108.382C58.2608 99.31 50.9061 91.9556 41.8335 91.9556C32.761 91.9556 25.4062 99.31 25.4062 108.382C25.4062 117.454 32.761 124.809 41.8335 124.809Z" fill="#E6E6E6"/>
<path d="M105.135 137.388L85.8515 103.991C85.731 103.782 85.5576 103.608 85.3489 103.488C85.1401 103.367 84.9033 103.304 84.6623 103.304C84.4212 103.304 84.1844 103.367 83.9757 103.488C83.7669 103.608 83.5935 103.782 83.473 103.991L71.7052 124.372L54.1616 93.9872C54.0071 93.7196 53.7848 93.4973 53.5171 93.3428C53.2495 93.1883 52.9459 93.1069 52.6368 93.1069C52.3278 93.1069 52.0242 93.1883 51.7565 93.3428C51.4889 93.4973 51.2666 93.7196 51.1121 93.9872L26.3887 136.807C26.2342 137.075 26.1528 137.379 26.1528 137.688C26.1528 137.997 26.2342 138.3 26.3887 138.568C26.5432 138.836 26.7655 139.058 27.0331 139.212C27.3008 139.367 27.6044 139.448 27.9135 139.448H103.945C104.186 139.448 104.423 139.385 104.632 139.264C104.841 139.144 105.014 138.97 105.135 138.762C105.255 138.553 105.319 138.316 105.319 138.075C105.319 137.834 105.255 137.597 105.135 137.388Z" fill="#6C63FF"/>
<path d="M15.4053 87.313H8.36279V94.3552H15.4053V87.313Z" fill="#3F3D56"/>
<path d="M163.561 56.7449H73.797C72.9763 56.7439 72.1896 56.4175 71.6093 55.8373C71.029 55.257 70.7026 54.4703 70.7017 53.6497V3.09518C70.7026 2.27458 71.029 1.48787 71.6093 0.907616C72.1896 0.327365 72.9763 0.000954522 73.797 0H163.561C164.382 0.000924564 165.168 0.327324 165.749 0.907582C166.329 1.48784 166.655 2.27457 166.656 3.09518V53.6497C166.655 54.4703 166.329 55.257 165.749 55.8373C165.168 56.4175 164.382 56.7439 163.561 56.7449ZM73.797 0.687816C73.1587 0.688534 72.5468 0.942396 72.0954 1.39371C71.6441 1.84502 71.3902 2.45693 71.3895 3.09518V53.6497C71.3902 54.2879 71.6441 54.8999 72.0954 55.3512C72.5468 55.8025 73.1587 56.0563 73.797 56.0571H163.561C164.199 56.0563 164.811 55.8024 165.263 55.3511C165.714 54.8998 165.968 54.2879 165.968 53.6497V3.09518C165.968 2.45694 165.714 1.84505 165.263 1.39374C164.811 0.942437 164.199 0.688561 163.561 0.687816H73.797Z" fill="#CCCCCC"/>
<path d="M103.389 35.4881C110.478 35.4881 116.225 29.7416 116.225 22.653C116.225 15.5643 110.478 9.81787 103.389 9.81787C96.2999 9.81787 90.5532 15.5643 90.5532 22.653C90.5532 29.7416 96.2999 35.4881 103.389 35.4881Z" fill="#F2F2F2"/>
<path d="M152.85 45.3177L137.783 19.2218C137.689 19.0587 137.553 18.9232 137.39 18.8291C137.227 18.7349 137.042 18.6853 136.854 18.6853C136.665 18.6853 136.48 18.7349 136.317 18.8291C136.154 18.9232 136.019 19.0587 135.925 19.2218L126.73 35.1473L113.022 11.4056C112.901 11.1965 112.727 11.0228 112.518 10.9021C112.309 10.7813 112.072 10.7178 111.83 10.7178C111.589 10.7178 111.352 10.7813 111.142 10.9021C110.933 11.0228 110.76 11.1965 110.639 11.4056L91.321 44.8637C91.2003 45.0728 91.1367 45.31 91.1367 45.5515C91.1367 45.7929 91.2003 46.0302 91.321 46.2393C91.4418 46.4484 91.6155 46.6221 91.8246 46.7428C92.0337 46.8635 92.2709 46.9271 92.5124 46.9271H151.921C152.109 46.9271 152.294 46.8775 152.457 46.7834C152.621 46.6892 152.756 46.5537 152.85 46.3906C152.944 46.2275 152.994 46.0425 152.994 45.8542C152.994 45.6658 152.944 45.4808 152.85 45.3177Z" fill="#E6E6E6"/>
<path d="M82.7391 6.19043H77.2363V11.693H82.7391V6.19043Z" fill="#CCCCCC"/>
</g>
<defs>
<clipPath id="clip0_192_585">
<rect width="487" height="330" fill="white"/>
</clipPath>
</defs>
</svg>
