<svg width="488" height="279" viewBox="0 0 488 279" fill="none" xmlns="http://www.w3.org/2000/svg">
<g clip-path="url(#clip0_194_780)">
<path d="M12.6481 254.239C14.5717 254.914 16.637 255.083 18.6451 254.73C20.6532 254.377 22.5363 253.513 24.1131 252.222C28.1287 248.856 29.388 243.312 30.4121 238.178L33.4421 222.991L27.0985 227.353C22.5362 230.49 17.8715 233.727 14.7129 238.271C11.5544 242.814 10.1764 249.017 12.7134 253.934" fill="#E6E6E6"/>
<path d="M13.6273 273.683C12.8289 267.874 12.0074 261.99 12.5688 256.118C13.0663 250.904 14.6594 245.812 17.9027 241.635C19.6242 239.422 21.7189 237.527 24.0928 236.033C24.7116 235.643 25.2814 236.622 24.6652 237.011C20.5577 239.603 17.3806 243.431 15.592 247.943C13.6167 252.96 13.2996 258.429 13.6398 263.758C13.8455 266.981 14.2825 270.183 14.7214 273.381C14.756 273.526 14.7344 273.678 14.6609 273.808C14.5873 273.937 14.4673 274.033 14.3252 274.078C14.1802 274.117 14.0256 274.097 13.8951 274.023C13.7645 273.949 13.6684 273.827 13.6277 273.682L13.6273 273.683Z" fill="#F2F2F2"/>
<path d="M19.3745 264.362C20.1994 265.615 21.3334 266.634 22.6672 267.321C24.001 268.009 25.4897 268.342 26.9899 268.288C30.846 268.106 34.0593 265.419 36.9518 262.868L45.5089 255.323L39.8457 255.052C35.773 254.857 31.5952 254.675 27.7161 255.93C23.837 257.186 20.2595 260.203 19.5503 264.213" fill="#E6E6E6"/>
<path d="M11.3705 277.022C15.2145 270.23 19.6728 262.681 27.6397 260.268C29.8547 259.6 32.1773 259.36 34.4823 259.563C35.209 259.626 35.0275 260.744 34.3024 260.681C30.4385 260.361 26.582 261.38 23.3822 263.567C20.303 265.66 17.9054 268.57 15.8764 271.655C14.6334 273.545 13.5201 275.516 12.4067 277.483C12.051 278.112 11.0106 277.658 11.3705 277.022Z" fill="#F2F2F2"/>
<path d="M193.519 86.8932C195.256 86.8932 196.664 85.4871 196.664 83.7525C196.664 82.018 195.256 80.6118 193.519 80.6118C191.782 80.6118 190.374 82.018 190.374 83.7525C190.374 85.4871 191.782 86.8932 193.519 86.8932Z" fill="#E5E5E5"/>
<path d="M268.734 108.235C256.499 103.164 244.744 97.0059 233.613 89.8345C206.882 72.6636 188.656 52.8033 188.26 40.4143C188.144 36.7933 189.491 33.9217 192.263 31.8798C196.748 28.5763 204.743 27.7837 215.385 29.5859L215.122 31.1342C204.911 29.4044 197.329 30.0993 193.197 33.1434C190.865 34.8608 189.733 37.2899 189.831 40.3642C190.212 52.2599 208.148 71.6098 234.464 88.5136C245.514 95.6335 257.183 101.747 269.33 106.781L268.734 108.235Z" fill="white"/>
<path d="M306.58 117.538C301.916 117.538 296.393 116.789 290.114 115.285L290.48 113.758C303.666 116.914 313.644 116.652 318.577 113.018C320.908 111.301 322.04 108.872 321.942 105.798C321.561 93.9016 303.625 74.552 277.31 57.6485C263.972 49.081 249.807 41.9459 236.345 37.0148L236.886 35.5405C250.455 40.5108 264.728 47.6988 278.16 56.3276C304.891 73.4982 323.117 93.3585 323.513 105.748C323.629 109.368 322.282 112.24 319.51 114.282C316.566 116.451 312.196 117.538 306.58 117.538Z" fill="white"/>
<path d="M205.239 117.521C199.607 117.522 195.197 116.443 192.263 114.282C189.491 112.24 188.144 109.368 188.26 105.747C188.656 93.3582 206.882 73.4979 233.613 56.3273C263.488 37.1369 297.021 25.7638 313.348 29.2864L313.016 30.8215C297.058 27.3769 264.022 38.661 234.464 57.6482C208.148 74.5517 190.212 93.9013 189.831 105.797C189.733 108.871 190.865 111.301 193.197 113.018C205.004 121.714 242.737 110.722 277.31 88.5134C301.059 73.2579 317.935 56.189 321.351 43.9679L322.866 44.3901C319.351 56.966 302.221 74.3792 278.161 89.8343C261.228 100.711 243.022 109.258 226.895 113.901C218.519 116.313 211.196 117.521 205.239 117.521Z" fill="white"/>
<path d="M226.129 37.427C228.734 37.427 230.846 35.3178 230.846 32.716C230.846 30.1141 228.734 28.0049 226.129 28.0049C223.523 28.0049 221.411 30.1141 221.411 32.716C221.411 35.3178 223.523 37.427 226.129 37.427Z" fill="#6C63FF"/>
<path d="M278.807 116.206C281.413 116.206 283.525 114.097 283.525 111.495C283.525 108.893 281.413 106.784 278.807 106.784C276.202 106.784 274.09 108.893 274.09 111.495C274.09 114.097 276.202 116.206 278.807 116.206Z" fill="#6C63FF"/>
<path d="M293.484 157.559C295.221 157.559 296.629 156.153 296.629 154.419C296.629 152.684 295.221 151.278 293.484 151.278C291.747 151.278 290.339 152.684 290.339 154.419C290.339 156.153 291.747 157.559 293.484 157.559Z" fill="#E5E5E5"/>
<path d="M215.907 6.28143C217.644 6.28143 219.052 4.87528 219.052 3.14071C219.052 1.40615 217.644 0 215.907 0C214.17 0 212.762 1.40615 212.762 3.14071C212.762 4.87528 214.17 6.28143 215.907 6.28143Z" fill="#E5E5E5"/>
<path d="M320.217 39.7825C322.822 39.7825 324.934 37.6733 324.934 35.0714C324.934 32.4696 322.822 30.3604 320.217 30.3604C317.611 30.3604 315.499 32.4696 315.499 35.0714C315.499 37.6733 317.611 39.7825 320.217 39.7825Z" fill="#6C63FF"/>
<path d="M166.685 279H0.524168C0.38515 279 0.251825 278.945 0.153525 278.847C0.0552242 278.749 0 278.615 0 278.477C0 278.338 0.0552242 278.205 0.153525 278.106C0.251825 278.008 0.38515 277.953 0.524168 277.953H166.685C166.824 277.953 166.958 278.008 167.056 278.106C167.154 278.205 167.209 278.338 167.209 278.477C167.209 278.615 167.154 278.749 167.056 278.847C166.958 278.945 166.824 279 166.685 279Z" fill="#CBCBCB"/>
<path d="M98.9083 271.99L105.335 271.989L108.392 247.236L98.9072 247.237L98.9083 271.99Z" fill="#FFB7B7"/>
<path d="M97.269 269.895L109.925 269.894H109.925C112.064 269.894 114.115 270.743 115.628 272.253C117.14 273.763 117.99 275.812 117.99 277.948V278.21L97.2694 278.21L97.269 269.895Z" fill="#2F2E41"/>
<path d="M73.2242 272.513L79.6505 272.513L82.7074 247.76L73.2231 247.76L73.2242 272.513Z" fill="#FFB7B7"/>
<path d="M71.585 270.418L84.2405 270.417H84.241C86.3799 270.418 88.4312 271.266 89.9437 272.777C91.4562 274.287 92.3059 276.335 92.3061 278.471V278.733L71.5853 278.734L71.585 270.418Z" fill="#2F2E41"/>
<path d="M112.395 167.921L109.128 263.297H98.6444L88.7087 177.827L84.4919 264.344H71.3877L67.7671 161.867L107.997 161.317L112.395 167.921Z" fill="#2F2E41"/>
<path d="M80.1666 90.6179L98.6446 90.0337L102.762 165.994L73.5537 165.41L80.1666 90.6179Z" fill="#CBCBCB"/>
<path d="M94.7708 170.122L114.059 169.572L108.548 142.055L109.099 126.095L113.508 100.229L101.384 93.074L98.6285 89.772C98.6285 89.772 94.2197 94.1747 94.2197 114.537C94.2197 134.9 94.7708 170.122 94.7708 170.122Z" fill="#2F2E41"/>
<path d="M78.238 169.572C78.238 169.572 94.7708 129.817 87.6066 111.996C87.6066 111.996 85.1679 92.5237 81.1518 89.772L74.9314 92.5237L61.7051 99.1278L66.6649 112.886L65.0117 124.444L63.9095 164.619L78.238 169.572Z" fill="#2F2E41"/>
<path d="M66.8421 170.392C66.1583 170.071 65.5532 169.605 65.0695 169.025C64.5858 168.446 64.2352 167.767 64.0425 167.038C63.8497 166.308 63.8195 165.545 63.9539 164.803C64.0883 164.061 64.384 163.357 64.8203 162.741L58.5288 152.761L63.6692 147.464L72.3558 161.682C73.3433 162.482 74.0025 163.617 74.2084 164.87C74.4143 166.124 74.1526 167.409 73.473 168.482C72.7933 169.556 71.7429 170.344 70.5208 170.695C69.2987 171.047 67.9898 170.939 66.8421 170.392Z" fill="#FFB7B7"/>
<path d="M117.09 179.926C116.527 179.423 116.081 178.803 115.784 178.109C115.486 177.416 115.345 176.666 115.369 175.911C115.394 175.157 115.583 174.418 115.925 173.745C116.266 173.072 116.752 172.482 117.346 172.017L114.178 160.656L120.622 157.05L124.87 173.156C125.587 174.205 125.893 175.48 125.731 176.74C125.569 178 124.95 179.157 123.991 179.991C123.032 180.826 121.8 181.28 120.528 181.268C119.256 181.256 118.033 180.778 117.09 179.926Z" fill="#FFB7B7"/>
<path d="M67.7674 98.0273L61.7053 99.128L48.479 131.048L60.6031 162.418L68.8696 154.713L61.1542 136.001C61.1542 136.001 61.7053 133.8 61.1542 133.525C60.6031 133.249 61.964 131.478 61.7053 131.34C61.1542 131.048 62.8075 128.296 62.8075 128.296L69.4207 114.538L67.7674 98.0273Z" fill="#2F2E41"/>
<path d="M107.446 100.229H113.509L120.122 134.35L119.571 139.853L121.775 153.612L124.806 167.645L115.162 167.921L110.202 142.054L105.793 124.444L107.446 100.229Z" fill="#2F2E41"/>
<path d="M89.7154 85.5402C96.8256 85.5402 102.589 79.7841 102.589 72.6837C102.589 65.5832 96.8256 59.8271 89.7154 59.8271C82.6052 59.8271 76.8413 65.5832 76.8413 72.6837C76.8413 79.7841 82.6052 85.5402 89.7154 85.5402Z" fill="#FFB7B7"/>
<path d="M99.9413 62.2956L102.227 61.4655C102.227 61.4655 97.4476 56.6923 90.7976 57.1074L92.668 55.2396C92.668 55.2396 88.0961 53.5794 83.9399 57.9375C81.7551 60.2285 79.2272 62.9213 77.6513 65.9548H75.2032L76.225 67.9955L72.6489 70.0362L76.3194 69.6696C75.9717 71.4314 76.0914 73.2534 76.6666 74.9547L77.4978 77.2375C77.4978 77.2375 80.8228 70.5967 80.8228 69.7665V71.8418C80.8228 71.8418 83.1087 69.9741 83.1087 68.7289L84.3556 70.1816L84.979 67.8988L92.668 70.1816L91.4212 68.3139L96.2008 68.9364L94.3305 66.6536C94.3305 66.6536 99.7335 69.3515 99.9414 71.6343C100.149 73.9171 102.851 76.8225 102.851 76.8225L104.098 74.7472C104.098 74.7472 105.968 65.4085 99.9413 62.2956Z" fill="#2F2E41"/>
<path d="M393.685 247.84L384.48 245.169L380.46 270.055L386.697 271.866L393.685 247.84Z" fill="#9F616A"/>
<path d="M366.749 272.351L367.014 271.439C367.527 269.675 368.721 268.187 370.333 267.301C371.945 266.416 373.843 266.207 375.61 266.719L388.552 270.473L386.352 278.037L366.749 272.351Z" fill="#2F2E41"/>
<path d="M451.157 246.995L441.57 246.995L444.66 272.013L451.155 272.014L451.157 246.995Z" fill="#9F616A"/>
<path d="M432.134 278.036L432.134 277.087C432.134 276.177 432.313 275.276 432.662 274.436C433.011 273.595 433.522 272.832 434.166 272.188C434.81 271.545 435.575 271.035 436.416 270.687C437.258 270.339 438.16 270.16 439.071 270.16L452.547 270.16L452.547 278.036L432.134 278.036Z" fill="#2F2E41"/>
<path d="M442.342 186.37C443.623 185.757 444.608 184.661 445.08 183.322C445.551 181.984 445.472 180.514 444.858 179.234L443.042 162.16L433.996 158.299L437.368 176.903C436.164 177.59 435.274 178.717 434.886 180.047C434.497 181.376 434.64 182.805 435.284 184.031C435.929 185.258 437.024 186.187 438.341 186.623C439.657 187.059 441.091 186.968 442.342 186.37Z" fill="#9F616A"/>
<path d="M440.723 140.38L430.109 108.203C429.888 107.834 427.246 103.682 421.493 105.448C420.858 105.627 420.267 105.933 419.756 106.35C419.245 106.766 418.825 107.283 418.522 107.868C416.838 111.092 418.409 116.073 418.416 116.099L431.483 145.341L431.496 145.371L435.621 175.401L444.528 173.596L440.723 140.38Z" fill="#6C63FF"/>
<path d="M370.178 259.416L386.153 210.497L404.675 168.217L404.409 147.711L426.389 142.593L428.949 151.186C443.752 160.941 438.876 179.706 438.528 180.963L460.833 263.169L436.512 265.867L420.187 188.034L405.131 219.66L394.485 266.968L370.178 259.416Z" fill="#2F2E41"/>
<path d="M402.824 130.498C398.454 122.132 401.613 118.947 406.391 114.128C408.344 112.225 410.176 110.203 411.877 108.072C419.331 98.5019 427.982 103.202 428.069 103.251L428.118 103.278L430.255 106.48C437.299 113.559 426.617 133.012 425.806 134.461L426.342 148.371L403.626 150.531L402.824 130.498Z" fill="#6C63FF"/>
<path d="M416.854 99.1222C424.04 99.1222 429.866 93.3044 429.866 86.1278C429.866 78.9511 424.04 73.1333 416.854 73.1333C409.668 73.1333 403.842 78.9511 403.842 86.1278C403.842 93.3044 409.668 99.1222 416.854 99.1222Z" fill="#9F616A"/>
<path d="M411.478 184.198C412.022 185.39 412.984 186.341 414.183 186.872C415.382 187.402 416.734 187.475 417.983 187.077C419.232 186.678 420.291 185.836 420.96 184.71C421.629 183.583 421.861 182.251 421.612 180.965L424.181 163.988L416.407 157.966L414.957 176.817C414.203 177.015 413.503 177.375 412.904 177.873C412.306 178.37 411.824 178.993 411.492 179.697C411.16 180.4 410.987 181.168 410.985 181.946C410.983 182.724 411.151 183.493 411.478 184.198Z" fill="#9F616A"/>
<path d="M413.125 175.361L416.794 144.839L411.564 113.254C411.551 113.033 411.291 107.795 413.868 104.956C414.35 104.419 414.938 103.988 415.594 103.688C416.25 103.388 416.961 103.226 417.682 103.212C424.218 102.926 425.78 108.364 425.795 108.418L427.924 142.349L423.122 175.916L413.125 175.361Z" fill="#6C63FF"/>
<path d="M403.584 83.8778L404.293 82.7394C406.054 82.3885 407.881 82.5954 409.519 83.3314C411.157 84.0673 412.524 85.2955 413.43 86.8446C413.877 85.2002 416.533 85.285 417.516 86.6776C418.499 88.0703 418.281 89.952 417.962 91.6258C417.643 93.2995 417.282 95.1185 418.056 96.637C418.469 97.3461 419.063 97.9333 419.777 98.3388C420.491 98.7443 421.3 98.9537 422.121 98.9456C423.769 98.9058 425.371 98.3968 426.738 97.4785C429.253 95.8797 431.264 93.6033 432.538 90.912C433.813 88.2206 434.299 85.2242 433.941 82.2687C433.609 79.9668 432.753 77.7717 431.438 75.8526C432.192 75.7959 432.895 75.4543 433.406 74.8974C433.759 74.4376 433.978 73.8892 434.039 73.3129C434.1 72.7365 434 72.1546 433.751 71.6313C433.314 70.7162 432.649 69.9284 431.82 69.3436C432.416 69.8184 433.116 70.1449 433.863 70.2963C434.782 70.4285 435.853 69.9522 436.02 69.0686C436.178 68.2267 435.503 67.4606 434.879 66.8436C434.475 66.4432 434.07 66.0429 433.665 65.6426C433.875 65.4055 434.07 65.1556 434.249 64.8943C434.924 63.9505 435.311 62.8323 435.365 61.674C435.418 60.5157 435.136 59.3666 434.551 58.3647C435.709 60.3396 434.693 62.6895 432.653 64.2905C432.588 64.3419 432.514 64.3871 432.447 64.4372L431.673 63.6716C431.067 62.9852 430.326 62.4315 429.495 62.0454C428.639 61.7174 427.545 61.8134 426.986 62.5093C426.387 63.2543 426.555 64.4392 425.855 65.0944C425.242 65.6678 424.245 65.5718 423.421 65.3299C422.596 65.088 421.744 64.734 420.911 64.9153C420.35 65.0807 419.871 65.4481 419.567 65.9463C419.262 66.4444 419.154 67.0378 419.263 67.6112C419.357 68.1055 419.566 68.5709 419.873 68.9697C417.569 68.7743 415.253 68.7672 412.948 68.9483C410.235 69.0992 407.463 69.287 404.96 70.3445C402.458 71.402 400.233 73.5056 399.772 76.1796C399.31 78.8538 400.877 83.6427 403.584 83.8778Z" fill="#2F2E41"/>
<path d="M487.476 279H321.315C321.176 279 321.042 278.945 320.944 278.847C320.846 278.749 320.791 278.615 320.791 278.477C320.791 278.338 320.846 278.205 320.944 278.106C321.042 278.008 321.176 277.953 321.315 277.953H487.476C487.615 277.953 487.748 278.008 487.846 278.106C487.945 278.205 488 278.338 488 278.477C488 278.615 487.945 278.749 487.846 278.847C487.748 278.945 487.615 279 487.476 279Z" fill="#CBCBCB"/>
</g>
<defs>
<clipPath id="clip0_194_780">
<rect width="488" height="279" fill="white"/>
</clipPath>
</defs>
</svg>
