<svg width="455" height="287" viewBox="0 0 455 287" fill="none" xmlns="http://www.w3.org/2000/svg">
<g clip-path="url(#clip0_194_644)">
<path d="M269.987 8.8047C302.742 -8.72669 344.315 0.464114 366.356 31.5496L365.606 32.0821C343.837 1.3803 302.772 -7.69479 270.42 9.61632C267.671 11.0874 265.018 12.7302 262.476 14.5351C229.207 38.1389 221.338 84.4165 244.934 117.696L244.184 118.228C220.294 84.5353 228.261 37.6816 261.944 13.7846C264.518 11.9577 267.204 10.2944 269.987 8.8047Z" fill="#E6E6E6"/>
<path d="M443.511 83.7405L335.776 75.3566C334.103 75.2245 332.552 74.4343 331.461 73.1592C330.37 71.8841 329.83 70.2284 329.958 68.5552L334.628 16.1945C334.76 14.5216 335.55 12.9694 336.825 11.8784C338.1 10.7874 339.755 10.2467 341.428 10.375L449.163 18.7589C450.835 18.891 452.387 19.6812 453.478 20.9563C454.569 22.2313 455.109 23.8871 454.981 25.5603L450.31 77.9209C450.178 79.5938 449.388 81.146 448.114 82.237C446.839 83.328 445.184 83.8687 443.511 83.7405Z" fill="#E6E6E6"/>
<path d="M418.063 71.911C417.245 71.911 416.424 71.879 415.601 71.8151L345.975 66.3968C344.583 66.2885 343.226 65.907 341.981 65.274C340.736 64.641 339.628 63.769 338.72 62.7077C337.813 61.6464 337.123 60.4166 336.69 59.0886C336.257 57.7606 336.09 56.3603 336.199 54.9677L337.786 34.5527C338.008 31.7414 339.336 29.1328 341.478 27.2994C343.62 25.4659 346.401 24.5573 349.212 24.7729L439.246 31.7793C442.057 32.0013 444.664 33.3293 446.497 35.4719C448.33 37.6146 449.238 40.3969 449.023 43.2086C448.416 51.0105 444.892 58.2971 439.154 63.6165C433.417 68.9358 425.886 71.8974 418.063 71.911Z" fill="white"/>
<path d="M437.092 48.0089L348.831 41.1405C348.647 41.1262 348.468 41.0758 348.304 40.9922C348.139 40.9086 347.993 40.7934 347.873 40.6532C347.753 40.513 347.662 40.3506 347.605 40.1752C347.548 39.9998 347.526 39.8148 347.54 39.6309C347.554 39.4469 347.605 39.2676 347.688 39.1032C347.772 38.9387 347.887 38.7923 348.027 38.6724C348.167 38.5524 348.33 38.4613 348.505 38.4041C348.68 38.3469 348.865 38.3249 349.049 38.3392L437.31 45.2076C437.494 45.2219 437.673 45.2723 437.837 45.3559C438.002 45.4395 438.148 45.5547 438.268 45.6949C438.388 45.8351 438.479 45.9975 438.536 46.1729C438.593 46.3483 438.616 46.5333 438.601 46.7172C438.587 46.9012 438.537 47.0805 438.453 47.2449C438.369 47.4094 438.254 47.5558 438.114 47.6757C437.974 47.7957 437.812 47.8868 437.636 47.944C437.461 48.0011 437.276 48.0232 437.092 48.0089Z" fill="#E6E6E6"/>
<path d="M400.444 50.7252L348.401 46.6752C348.029 46.6461 347.685 46.4707 347.443 46.1876C347.201 45.9046 347.081 45.5369 347.11 45.1656C347.139 44.7943 347.314 44.4496 347.597 44.2073C347.88 43.9651 348.247 43.8451 348.619 43.8738L400.662 47.9238C400.846 47.938 401.025 47.9883 401.189 48.0719C401.354 48.1555 401.5 48.2706 401.62 48.4108C401.74 48.5511 401.832 48.7135 401.889 48.889C401.946 49.0645 401.968 49.2495 401.954 49.4335C401.94 49.6175 401.889 49.7969 401.805 49.9615C401.722 50.126 401.607 50.2724 401.466 50.3923C401.326 50.5123 401.164 50.6034 400.988 50.6605C400.813 50.7177 400.628 50.7396 400.444 50.7252Z" fill="#E6E6E6"/>
<path d="M411.908 57.1851L347.97 52.2095C347.786 52.1953 347.607 52.145 347.442 52.0614C347.278 51.9779 347.131 51.8627 347.011 51.7225C346.891 51.5823 346.8 51.4198 346.743 51.2443C346.686 51.0688 346.664 50.8838 346.678 50.6998C346.692 50.5158 346.743 50.3364 346.826 50.1719C346.91 50.0073 347.025 49.8609 347.166 49.741C347.306 49.621 347.468 49.5299 347.644 49.4728C347.819 49.4157 348.004 49.3937 348.188 49.4081L412.126 54.3837C412.497 54.4128 412.842 54.5882 413.084 54.8713C413.326 55.1544 413.445 55.522 413.417 55.8933C413.388 56.2647 413.213 56.6094 412.93 56.8516C412.647 57.0938 412.279 57.2138 411.908 57.1851Z" fill="#E6E6E6"/>
<path d="M436.302 154.819L328.566 146.435C326.894 146.303 325.342 145.513 324.251 144.238C323.161 142.963 322.62 141.307 322.749 139.634L327.419 87.2731C327.551 85.6002 328.341 84.048 329.616 82.957C330.89 81.866 332.546 81.3253 334.218 81.4536L441.954 89.8375C443.626 89.9696 445.178 90.7598 446.268 92.0349C447.359 93.3099 447.9 94.9657 447.771 96.6389L443.101 149C442.969 150.672 442.179 152.225 440.904 153.316C439.63 154.407 437.974 154.947 436.302 154.819Z" fill="#E6E6E6"/>
<path d="M410.826 142.989C410.019 142.989 409.208 142.958 408.391 142.894L338.766 137.476C337.373 137.368 336.016 136.986 334.772 136.353C333.527 135.72 332.419 134.848 331.511 133.787C330.603 132.726 329.913 131.496 329.48 130.168C329.048 128.84 328.881 127.44 328.989 126.047L330.577 105.632C330.685 104.24 331.067 102.882 331.699 101.637C332.332 100.391 333.204 99.2832 334.265 98.3751C335.326 97.4669 336.556 96.7767 337.883 96.3439C339.211 95.911 340.611 95.744 342.003 95.8524L432.037 102.859C433.429 102.967 434.786 103.349 436.031 103.982C437.276 104.615 438.384 105.487 439.292 106.548C440.2 107.609 440.89 108.839 441.322 110.167C441.755 111.495 441.922 112.896 441.814 114.288C441.197 122.091 437.667 129.376 431.925 134.694C426.183 140.012 418.651 142.974 410.826 142.989Z" fill="white"/>
<path d="M429.883 119.088L341.622 112.219C341.438 112.205 341.259 112.154 341.094 112.071C340.93 111.987 340.783 111.872 340.663 111.732C340.544 111.592 340.452 111.429 340.395 111.254C340.338 111.078 340.316 110.893 340.33 110.709C340.345 110.526 340.395 110.346 340.479 110.182C340.562 110.017 340.677 109.871 340.818 109.751C340.958 109.631 341.12 109.54 341.295 109.483C341.471 109.426 341.656 109.403 341.84 109.418L430.1 116.286C430.284 116.301 430.464 116.351 430.628 116.435C430.792 116.518 430.939 116.633 431.059 116.774C431.179 116.914 431.27 117.076 431.327 117.252C431.384 117.427 431.406 117.612 431.392 117.796C431.377 117.98 431.327 118.159 431.243 118.324C431.16 118.488 431.045 118.634 430.905 118.754C430.764 118.874 430.602 118.965 430.427 119.023C430.251 119.08 430.066 119.102 429.883 119.088Z" fill="#E6E6E6"/>
<path d="M393.235 121.804L341.191 117.754C341.007 117.74 340.828 117.689 340.664 117.606C340.499 117.522 340.353 117.407 340.233 117.267C340.113 117.127 340.021 116.964 339.964 116.789C339.907 116.613 339.885 116.428 339.899 116.244C339.914 116.06 339.964 115.881 340.048 115.716C340.131 115.552 340.246 115.405 340.387 115.285C340.527 115.165 340.689 115.074 340.865 115.017C341.04 114.96 341.225 114.938 341.409 114.953L393.452 119.003C393.824 119.032 394.168 119.207 394.41 119.49C394.652 119.773 394.772 120.141 394.743 120.512C394.714 120.883 394.539 121.228 394.256 121.47C393.973 121.713 393.606 121.833 393.235 121.804Z" fill="#E6E6E6"/>
<path d="M404.699 128.264L340.761 123.289C340.39 123.26 340.045 123.084 339.803 122.801C339.561 122.518 339.441 122.15 339.47 121.779C339.498 121.407 339.674 121.063 339.957 120.82C340.24 120.578 340.607 120.458 340.979 120.487L404.917 125.463C405.288 125.492 405.633 125.667 405.875 125.95C406.117 126.233 406.237 126.601 406.208 126.972C406.179 127.344 406.004 127.689 405.721 127.931C405.438 128.173 405.07 128.293 404.699 128.264Z" fill="#E6E6E6"/>
<path d="M162.254 127.462C160.887 124.362 160.143 121.023 160.065 117.635C159.988 114.247 160.578 110.878 161.803 107.718C163.027 104.559 164.862 101.672 167.201 99.2217C169.541 96.7715 172.341 94.8063 175.44 93.4383C178.539 92.0704 181.877 91.3264 185.264 91.2489C188.65 91.1714 192.019 91.7619 195.177 92.9867C198.336 94.2115 201.222 96.0466 203.671 98.3872C206.121 100.728 208.085 103.528 209.453 106.628L208.611 107C207.292 104.01 205.398 101.31 203.036 99.0527C200.674 96.7956 197.89 95.026 194.845 93.8449C191.799 92.6638 188.55 92.0943 185.285 92.1691C182.019 92.2438 178.8 92.9612 175.811 94.2803C172.823 95.5995 170.123 97.4946 167.867 99.8573C165.61 102.22 163.841 105.004 162.661 108.051C161.48 111.098 160.91 114.347 160.985 117.614C161.06 120.881 161.777 124.101 163.096 127.09L162.254 127.462Z" fill="#E6E6E6"/>
<path d="M429.629 271.359C440.161 266.367 448.006 256.323 446.782 245.284C437.334 252.938 424.469 257.212 411.189 257.109C406.017 257.069 400.224 256.543 396.465 259.446C394.126 261.253 393.071 264.121 392.938 266.98C392.805 269.839 393.498 272.733 394.187 275.588L393.977 276.265C406.343 277.053 419.097 276.352 429.629 271.359Z" fill="#F2F2F2"/>
<path d="M446.523 245.257C442.45 253.208 435.387 259.835 426.61 263.714C424.687 264.611 422.639 265.213 420.537 265.499C418.395 265.722 416.231 265.44 414.219 264.672C412.311 263.988 410.431 263.096 408.408 262.825C407.418 262.687 406.409 262.75 405.444 263.01C404.478 263.27 403.575 263.723 402.788 264.341C400.919 265.795 399.804 267.807 398.793 269.814C397.672 272.043 396.547 274.377 394.351 275.896C394.084 276.08 394.455 276.463 394.721 276.279C398.543 273.637 399.095 268.858 402.132 265.657C402.846 264.849 403.734 264.213 404.729 263.797C405.724 263.381 406.8 263.196 407.877 263.255C409.941 263.407 411.881 264.325 413.807 265.033C415.765 265.806 417.867 266.151 419.969 266.044C422.089 265.857 424.165 265.329 426.117 264.481C430.361 262.714 434.289 260.268 437.749 257.241C441.571 253.934 444.726 249.928 447.045 245.437C447.185 245.162 446.663 244.984 446.523 245.257Z" fill="white"/>
<path d="M429.55 262.593C430.659 263.901 432.148 264.831 433.809 265.254C435.471 265.677 437.224 265.57 438.822 264.95C439.129 264.821 438.878 264.372 438.572 264.501C437.084 265.081 435.452 265.18 433.906 264.784C432.359 264.387 430.976 263.516 429.95 262.293C429.735 262.031 429.336 262.332 429.55 262.593Z" fill="white"/>
<path d="M415.145 265.13C415.349 263.577 415.88 262.085 416.702 260.751C417.524 259.418 418.619 258.274 419.915 257.395C420.18 257.21 419.809 256.827 419.544 257.012C418.198 257.93 417.061 259.122 416.209 260.511C415.357 261.901 414.809 263.455 414.6 265.071C414.563 265.379 415.108 265.436 415.145 265.13Z" fill="white"/>
<path d="M440.945 253.596C440.439 253.207 440.04 252.695 439.787 252.108C439.534 251.521 439.435 250.88 439.5 250.244C439.542 249.937 438.997 249.88 438.955 250.185C438.887 250.888 438.997 251.596 439.275 252.245C439.553 252.893 439.99 253.461 440.545 253.896C440.596 253.946 440.661 253.977 440.731 253.984C440.801 253.992 440.871 253.975 440.931 253.938C440.956 253.918 440.978 253.893 440.993 253.864C441.008 253.835 441.016 253.803 441.017 253.771C441.019 253.738 441.013 253.706 441.001 253.675C440.988 253.645 440.969 253.618 440.945 253.596Z" fill="white"/>
<path d="M412.033 221.946C412.001 222.136 411.968 222.327 411.932 222.519C411.481 225.076 410.792 227.585 409.875 230.013C409.807 230.202 409.736 230.392 409.662 230.579C407.342 236.458 403.814 241.785 399.306 246.215C397.47 248.025 395.489 249.682 393.383 251.17C390.449 253.248 387.061 255.277 385.204 258.076C385.007 258.365 384.831 258.667 384.676 258.98L393.044 275.916C393.084 275.947 393.12 275.98 393.16 276.012L393.46 276.699C393.577 276.629 393.695 276.554 393.812 276.484C393.879 276.443 393.945 276.399 394.013 276.358C394.058 276.33 394.102 276.302 394.144 276.279C394.159 276.269 394.174 276.26 394.185 276.252C394.227 276.229 394.263 276.203 394.301 276.182C394.966 275.763 395.629 275.339 396.289 274.909C396.293 274.908 396.293 274.908 396.295 274.903C401.314 271.62 406.035 267.91 409.913 263.63C410.03 263.501 410.151 263.371 410.264 263.235C411.988 261.311 413.532 259.234 414.876 257.028C415.601 255.829 416.255 254.588 416.836 253.313C418.328 250.019 419.212 246.483 419.445 242.874C419.918 235.645 417.774 228.171 412.445 222.385C412.308 222.237 412.174 222.092 412.033 221.946Z" fill="#F2F2F2"/>
<path d="M411.819 222.061C414.15 231.002 413.347 240.431 409.401 248.455C408.58 250.236 407.449 251.858 406.061 253.244C404.575 254.607 402.747 255.542 400.772 255.95C398.881 256.398 396.87 256.656 395.172 257.517C394.338 257.934 393.616 258.543 393.063 259.293C392.51 260.044 392.142 260.914 391.99 261.834C391.574 264.075 392.101 266.383 392.703 268.631C393.372 271.126 394.109 273.712 393.493 276.185C393.418 276.485 393.954 276.61 394.029 276.311C395.102 272.008 392.281 267.657 392.389 263.304C392.439 261.273 393.179 259.294 395.065 258.168C396.713 257.184 398.787 256.917 400.708 256.478C402.649 256.101 404.468 255.255 406.006 254.013C407.472 252.705 408.675 251.129 409.551 249.371C411.559 245.497 412.849 241.291 413.36 236.957C413.973 231.929 413.624 226.83 412.331 221.932C412.251 221.623 411.739 221.754 411.819 222.061Z" fill="white"/>
<path d="M410.843 245.919C414.286 246.997 417.937 245.707 419.381 242.918C419.523 242.643 419.032 242.397 418.889 242.672C417.537 245.285 414.158 246.457 410.94 245.448C410.601 245.342 410.507 245.813 410.843 245.919Z" fill="white"/>
<path d="M401.775 255.839C400.894 254.509 400.292 253.014 400.006 251.444C399.72 249.874 399.756 248.262 400.112 246.707C400.185 246.407 399.649 246.282 399.575 246.581C399.209 248.201 399.175 249.879 399.476 251.512C399.778 253.146 400.407 254.701 401.328 256.083C401.508 256.365 401.955 256.119 401.775 255.839Z" fill="white"/>
<path d="M413.287 232.143C412.611 232.066 411.96 231.842 411.381 231.485C410.802 231.128 410.308 230.648 409.936 230.079C409.759 229.795 409.313 230.041 409.488 230.323C409.902 230.95 410.448 231.48 411.087 231.875C411.727 232.271 412.444 232.522 413.19 232.613C413.339 232.631 413.477 232.578 413.507 232.44C413.515 232.372 413.497 232.303 413.456 232.248C413.415 232.192 413.354 232.155 413.287 232.143Z" fill="white"/>
<path d="M429.796 151.113L423.395 117.024L410.828 100.479L401.515 106.569C402.831 113.709 412.786 127.038 412.786 127.038L421.609 153.401C421.574 153.538 421.541 153.676 421.517 153.819C421.377 154.653 421.455 155.509 421.742 156.304C422.03 157.099 422.517 157.807 423.158 158.359C423.799 158.91 424.571 159.287 425.4 159.453C426.229 159.619 427.087 159.568 427.891 159.306C428.694 159.043 429.417 158.578 429.988 157.954C430.559 157.331 430.96 156.57 431.151 155.747C431.343 154.923 431.319 154.064 431.082 153.252C430.844 152.44 430.402 151.703 429.796 151.113Z" fill="#FFB8B8"/>
<path d="M401.765 110.171L412.309 101.611L412.329 101.566C414.301 97.0955 409.923 89.4307 405.902 83.7881C404.575 81.9286 402.592 80.6425 400.353 80.1899C398.114 79.7373 395.787 80.1519 393.842 81.3499C392.413 82.2434 391.263 83.5188 390.52 85.032C389.778 86.5452 389.474 88.2359 389.642 89.913L390.529 98.4525L401.765 110.171Z" fill="#3F3D56"/>
<path d="M364.502 279.816L357.486 279.816L354.149 252.748L364.503 252.749L364.502 279.816Z" fill="#FFB8B8"/>
<path d="M366.291 277.525L364.316 277.525L356.607 274.389L352.475 277.524H352.474C350.139 277.524 347.9 278.452 346.249 280.104C344.598 281.756 343.67 283.996 343.67 286.331V286.618L366.29 286.619L366.291 277.525Z" fill="#2F2E41"/>
<path d="M395.63 279.816L388.615 279.816L385.277 252.748L395.631 252.749L395.63 279.816Z" fill="#FFB8B8"/>
<path d="M397.42 277.525L395.445 277.525L387.736 274.389L383.604 277.524H383.603C381.268 277.524 379.029 278.452 377.378 280.104C375.727 281.756 374.799 283.996 374.799 286.331V286.618L397.419 286.619L397.42 277.525Z" fill="#2F2E41"/>
<path d="M406.327 163.226C406.327 163.226 407.146 173.059 405.099 182.482C403.051 191.906 403.051 218.445 403.051 218.445L398.545 270.161L385.029 268.932L381.343 182.482L368.236 211.572L369.465 215.669L367.828 216.693C367.828 216.693 369.055 224.683 368.236 224.683C367.417 224.683 365.369 225.912 365.369 225.912L367.007 268.112L353.081 267.702L348.166 208.294L353.491 174.288L353.9 167.733L355.743 167.809L356.682 165.07L358.406 160.358L406.327 163.226Z" fill="#2F2E41"/>
<path d="M407.035 165.292L407.108 165.189C411.007 159.729 405.143 146.609 404.259 144.707L407.984 143.498L407.145 136.366L406.748 133.186L409.595 130.339L409.603 130.268L411.241 115.928L413.623 106.403C414.521 102.803 414.444 99.028 413.401 95.4668C412.359 91.9056 410.387 88.686 407.69 86.1387L402.184 80.9455L395.492 71.041H384.701L381.001 78.0321C377.413 78.8615 374.23 80.9234 372.007 83.8587C369.783 86.7941 368.659 90.4167 368.831 94.0957L369.669 112.431L366.387 135.261L366.385 139.392L362.69 143.499L363.497 147.534L360.685 148.74L359.444 154.535C358.93 155.213 355.539 159.736 355.539 160.973C355.539 161.158 355.676 161.338 355.97 161.537C358.281 163.102 371.055 166.294 376.708 164.031C382.73 161.622 406.67 165.236 406.911 165.272L407.035 165.292Z" fill="#3F3D56"/>
<path d="M313.193 286.453C313.193 286.598 313.25 286.737 313.352 286.839C313.454 286.942 313.593 287 313.737 287H442.651C442.796 287 442.935 286.943 443.038 286.84C443.14 286.737 443.198 286.598 443.198 286.453C443.198 286.308 443.14 286.168 443.038 286.066C442.935 285.963 442.796 285.905 442.651 285.905H313.741C313.596 285.905 313.457 285.962 313.354 286.064C313.252 286.166 313.194 286.305 313.193 286.449V286.453Z" fill="#CCCCCC"/>
<path d="M388.702 67.8435C396.595 67.8435 402.994 61.443 402.994 53.5475C402.994 45.652 396.595 39.2515 388.702 39.2515C380.809 39.2515 374.411 45.652 374.411 53.5475C374.411 61.443 380.809 67.8435 388.702 67.8435Z" fill="#FFB8B8"/>
<path d="M387.333 68.0749C389.546 68.0523 391.754 67.8406 393.931 67.4421C396.086 66.9454 400.842 63.2668 402.138 61.0936C403.101 59.479 403.679 56.9815 403.995 55.1708C404.421 52.7745 404.338 50.3154 403.754 47.9528C403.169 45.5902 402.095 43.3768 400.601 41.4558C400.025 40.6511 399.242 40.0171 398.336 39.6208C398.255 39.5917 398.173 39.5663 398.09 39.5449C396.776 39.2351 395.584 38.5394 394.668 37.5472C394.49 37.3463 394.298 37.1585 394.093 36.9852C393.065 36.1622 391.858 35.5941 390.568 35.3274C388.486 34.827 385.506 35.454 381.714 37.1925C379.808 38.0659 377.693 37.8222 376.063 37.5124C375.971 37.4971 375.878 37.5061 375.791 37.5384C375.704 37.5707 375.627 37.6252 375.568 37.6964C374.895 38.3619 373.995 38.7479 373.049 38.7769C372.47 38.8173 371.883 39.6355 371.175 40.701C371.015 40.9429 370.827 41.2252 370.691 41.3974L370.664 41.0739L370.346 41.4438C369.845 42.0252 369.5 42.7238 369.342 43.4746C369.184 44.2254 369.219 45.0039 369.442 45.7378C369.666 46.4716 370.072 47.1368 370.622 47.6715C371.172 48.2062 371.849 48.593 372.588 48.7958C373.175 48.9359 373.775 49.0157 374.378 49.0339C374.744 49.0573 375.122 49.0815 375.485 49.1349C376.651 49.3427 377.744 49.8494 378.657 50.6058C379.569 51.3621 380.27 52.3422 380.69 53.4503C380.79 53.7064 380.946 53.9362 381.149 54.122C381.351 54.3079 381.593 54.4447 381.857 54.5221C382.12 54.5994 382.398 54.6151 382.668 54.568C382.939 54.521 383.195 54.4123 383.417 54.2505C383.786 53.9474 384.223 53.7381 384.69 53.6404C385.158 53.5427 385.642 53.5596 386.101 53.6896C386.501 53.8985 386.817 54.2385 386.995 54.6526C387.211 55.1135 387.56 55.4996 387.996 55.7615C389.484 56.4809 389.672 59.8333 389.217 62.6436C388.778 65.3526 387.824 67.3287 386.896 67.4491C386.181 67.5418 386.101 67.5948 386.052 67.7228L386.009 67.8374L386.092 67.9415C386.491 68.0747 386.914 68.1202 387.333 68.0749Z" fill="#2F2E41"/>
<path d="M230.268 141.763C245.963 141.763 258.686 129.036 258.686 113.337C258.686 97.6371 245.963 84.9102 230.268 84.9102C214.574 84.9102 201.851 97.6371 201.851 113.337C201.851 129.036 214.574 141.763 230.268 141.763Z" fill="#6C63FF"/>
<path d="M384.041 109.106L374.667 103.11C368.698 107.24 360.631 121.789 360.631 121.789L340.215 140.657C339.364 140.803 338.567 141.171 337.903 141.723C337.24 142.275 336.734 142.992 336.436 143.802C336.137 144.612 336.058 145.487 336.205 146.337C336.352 147.188 336.72 147.985 337.273 148.648C337.825 149.311 338.543 149.816 339.353 150.114C340.163 150.411 341.037 150.49 341.888 150.342C342.738 150.194 343.534 149.824 344.196 149.27C344.858 148.717 345.363 147.998 345.659 147.188L374.113 127.359L384.041 109.106Z" fill="#FFB8B8"/>
<path d="M383.148 111.539L389.391 96.5509L387.133 88.2678C386.683 86.6433 385.789 85.1769 384.55 84.0342C383.311 82.8916 381.778 82.1183 380.123 81.8017C377.877 81.3876 375.557 81.8422 373.633 83.0735C371.709 84.3049 370.324 86.2212 369.758 88.4349C368.048 95.1499 366.735 103.88 370.189 107.334L370.224 107.369L383.148 111.539Z" fill="#3F3D56"/>
<path d="M19.5728 278.327C7.35195 272.053 -1.51459 259.927 0.339144 246.969C11.1844 256.338 26.1792 261.854 41.8275 262.229C47.9224 262.375 54.7662 261.972 59.0857 265.532C61.7735 267.748 62.9092 271.166 62.9595 274.539C63.0098 277.912 62.0855 281.295 61.1673 284.633L61.3889 285.438C46.7917 285.904 31.7937 284.602 19.5728 278.327Z" fill="#F2F2F2"/>
<path d="M0.645895 246.947C5.14772 256.465 13.22 264.536 23.4148 269.433C25.6468 270.562 28.0365 271.348 30.503 271.763C33.0174 272.107 35.5774 271.854 37.9762 271.026C40.2489 270.29 42.4973 269.31 44.8906 269.066C46.0626 268.94 47.2479 269.052 48.3757 269.395C49.5035 269.738 50.5506 270.305 51.4543 271.062C53.6022 272.844 54.8406 275.257 55.956 277.659C57.1944 280.327 58.4315 283.118 60.9627 284.99C61.2694 285.216 60.8184 285.654 60.5122 285.427C56.1084 282.171 55.6371 276.521 52.1788 272.637C50.5651 270.824 48.2884 269.475 45.5006 269.592C43.0628 269.694 40.7435 270.704 38.4481 271.465C36.1122 272.304 33.6239 272.631 31.1508 272.427C28.6603 272.127 26.2345 271.428 23.967 270.355C19.0338 268.115 14.4973 265.088 10.5349 261.392C6.15582 257.354 2.58846 252.516 0.0247454 247.139C-0.130761 246.81 0.4914 246.62 0.645895 246.947Z" fill="white"/>
<path d="M19.993 268.003C17.3139 271.059 12.5987 272.093 8.98205 270.434C8.62576 270.27 8.93741 269.75 9.29418 269.914C11.0248 270.653 12.9434 270.83 14.78 270.421C16.6165 270.012 18.2788 269.038 19.533 267.634C19.7965 267.334 20.255 267.704 19.993 268.003Z" fill="white"/>
<path d="M36.8677 271.53C36.6853 269.693 36.1161 267.915 35.1975 266.314C34.2788 264.713 33.0316 263.324 31.5379 262.24C31.2322 262.012 31.6831 261.575 31.9884 261.803C33.5403 262.934 34.835 264.381 35.787 266.05C36.739 267.718 37.3267 269.569 37.5115 271.481C37.5444 271.845 36.9004 271.892 36.8677 271.53Z" fill="white"/>
<path d="M6.90485 256.979C7.51603 256.539 8.00477 255.951 8.32472 255.269C8.64467 254.587 8.78521 253.835 8.73301 253.084C8.6949 252.72 9.33895 252.674 9.37682 253.035C9.43075 253.865 9.27467 254.695 8.92301 255.449C8.57135 256.203 8.03545 256.856 7.36483 257.347C7.30398 257.404 7.22588 257.438 7.14322 257.444C7.06057 257.45 6.97823 257.428 6.90959 257.382C6.87994 257.358 6.85598 257.327 6.83938 257.292C6.82278 257.258 6.81395 257.22 6.81349 257.182C6.81304 257.143 6.82099 257.105 6.83677 257.07C6.85255 257.035 6.87578 257.004 6.90485 256.979Z" fill="white"/>
<path d="M42.1462 220.774C42.1773 221 42.2084 221.226 42.2443 221.453C42.6798 224.482 43.3973 227.463 44.3874 230.358C44.4598 230.583 44.5371 230.81 44.6168 231.032C47.1305 238.045 51.0878 244.452 56.2328 249.839C58.3286 252.04 60.6002 254.066 63.0249 255.898C66.4048 258.455 70.3193 260.972 72.4027 264.339C72.624 264.686 72.8204 265.049 72.9907 265.424L62.501 285.062C62.4528 285.097 62.4093 285.135 62.3609 285.171L61.9812 285.969C61.8468 285.882 61.7097 285.789 61.5753 285.702C61.4971 285.652 61.4212 285.597 61.3429 285.547C61.2915 285.512 61.2402 285.477 61.1913 285.448C61.1742 285.437 61.1571 285.425 61.1448 285.415C61.0959 285.386 61.0544 285.355 61.0104 285.328C60.2425 284.809 59.4777 284.285 58.7161 283.755C58.7112 283.753 58.7112 283.753 58.7087 283.747C52.9186 279.692 47.4961 275.145 43.0871 269.958C42.9545 269.802 42.8169 269.645 42.6891 269.479C40.7301 267.149 38.9888 264.644 37.4872 261.996C36.6785 260.556 35.9538 259.07 35.3167 257.546C33.6825 253.61 32.7733 249.411 32.6332 245.151C32.3463 236.618 35.1506 227.893 41.6448 221.276C41.811 221.106 41.975 220.941 42.1462 220.774Z" fill="#F2F2F2"/>
<path d="M42.3941 220.918C39.3146 231.363 39.9086 242.501 44.258 252.101C45.1584 254.23 46.4298 256.183 48.013 257.868C49.7134 259.529 51.8314 260.699 54.1425 261.253C56.354 261.852 58.7137 262.231 60.682 263.308C61.648 263.831 62.4766 264.575 63.1001 265.479C63.7235 266.384 64.1241 267.423 64.2692 268.512C64.6749 271.168 63.968 273.867 63.1749 276.493C62.2944 279.408 61.3287 282.426 61.9629 285.363C62.0398 285.719 61.403 285.845 61.3263 285.49C60.2228 280.381 63.7084 275.361 63.7441 270.23C63.7607 267.835 62.963 265.476 60.7839 264.079C58.8783 262.858 56.4456 262.466 54.199 261.877C51.9268 261.361 49.8155 260.296 48.0495 258.775C46.3719 257.179 45.0136 255.279 44.0472 253.175C41.8264 248.536 40.4631 243.533 40.0233 238.409C39.4891 232.462 40.0907 226.468 41.796 220.746C41.9023 220.386 42.4998 220.559 42.3941 220.918Z" fill="white"/>
<path d="M42.6525 249.059C38.5571 250.201 34.3033 248.545 32.7071 245.205C32.5499 244.876 33.138 244.605 33.2955 244.934C34.7908 248.063 38.7281 249.569 42.5564 248.502C42.9593 248.389 43.0531 248.947 42.6525 249.059Z" fill="white"/>
<path d="M52.9647 261.084C54.0526 259.55 54.8175 257.811 55.213 255.972C55.6085 254.134 55.6263 252.234 55.2653 250.388C55.1899 250.032 55.8267 249.905 55.902 250.26C56.2734 252.182 56.2505 254.16 55.8346 256.073C55.4188 257.986 54.6186 259.794 53.4828 261.388C53.2599 261.713 52.7431 261.408 52.9647 261.084Z" fill="white"/>
<path d="M40.2886 232.739C41.0877 232.674 41.8627 232.434 42.5583 232.035C43.2539 231.637 43.8532 231.09 44.3133 230.433C44.5316 230.106 45.0482 230.412 44.8313 230.737C44.32 231.461 43.6574 232.064 42.8896 232.506C42.1218 232.948 41.267 233.218 40.3847 233.297C40.2095 233.312 40.0486 233.245 40.0183 233.082C40.0112 233.001 40.0352 232.92 40.0854 232.857C40.1357 232.793 40.2084 232.751 40.2886 232.739Z" fill="white"/>
<path d="M79.1172 122.351L80.0379 130.892L79.4962 142.092L104.296 139.145L106.626 122.351L103.657 122.38L79.1172 122.351Z" fill="#6C63FF"/>
<path d="M66.2539 277.417H71.6759L74.2564 256.497H66.2539V277.417Z" fill="#FFB6B6"/>
<path d="M64.4848 273.702L73.1471 273.185V276.897L81.3825 282.586C81.7893 282.867 82.0956 283.271 82.2568 283.739C82.418 284.206 82.4256 284.713 82.2785 285.185C82.1314 285.657 81.8373 286.07 81.4391 286.363C81.0409 286.656 80.5595 286.814 80.0652 286.814H69.7525L67.9749 283.141L67.2809 286.814H63.3926L64.4848 273.702Z" fill="#2F2E41"/>
<path d="M96.7104 277.417H102.132L104.713 256.497H96.7104V277.417Z" fill="#FFB6B6"/>
<path d="M94.9409 273.702L103.603 273.185V276.897L111.839 282.586C112.245 282.867 112.552 283.271 112.713 283.739C112.874 284.206 112.882 284.713 112.735 285.185C112.587 285.657 112.293 286.07 111.895 286.363C111.497 286.656 111.016 286.814 110.521 286.814H100.209L98.431 283.141L97.7369 286.814H93.8486L94.9409 273.702Z" fill="#2F2E41"/>
<path d="M63.915 259.377H63.9739L65.0166 225.362C64.3418 224.06 63.9994 222.611 64.0197 221.145C64.0401 219.678 64.4226 218.24 65.1333 216.957L65.2826 216.686L64.8955 214.892C64.3983 212.586 64.6265 210.182 65.5486 208.011L66.5214 176.282C63.0461 153.751 79.6086 139.058 79.6086 139.058H104.42L109.746 157.365C113.268 191.683 112.629 225.124 107.041 257.524L107.193 257.601C107.742 257.79 107.977 258.55 107.719 259.299C107.46 260.047 106.806 260.5 106.258 260.311L93.1549 259.855C92.6064 259.665 92.371 258.905 92.6293 258.157C92.8875 257.409 93.5415 256.956 94.09 257.145L94.9809 257.596L93.0809 224.773L93.2917 218.778L92.8573 211.976L90.8489 181.383L83.2466 219.004L75.4812 259.755C75.6954 259.949 75.8458 260.203 75.9124 260.485C75.979 260.766 75.9588 261.061 75.8545 261.33C75.7502 261.6 75.5666 261.831 75.328 261.994C75.0894 262.157 74.8069 262.244 74.518 262.243H63.915C63.7266 262.243 63.54 262.207 63.3658 262.135C63.1917 262.063 63.0334 261.957 62.9001 261.824C62.7668 261.691 62.661 261.533 62.5888 261.359C62.5166 261.185 62.4795 260.998 62.4795 260.81C62.4795 260.621 62.5166 260.435 62.5888 260.261C62.661 260.087 62.7668 259.929 62.9001 259.795C63.0334 259.662 63.1917 259.557 63.3658 259.485C63.54 259.413 63.7266 259.376 63.915 259.377Z" fill="#2F2E41"/>
<path d="M83.4475 78.6459C90.7973 78.6459 96.7554 72.6859 96.7554 65.3339C96.7554 57.9819 90.7973 52.022 83.4475 52.022C76.0978 52.022 70.1396 57.9819 70.1396 65.3339C70.1396 72.6859 76.0978 78.6459 83.4475 78.6459Z" fill="#FFB6B6"/>
<path d="M25.1331 126.834C27.0034 122.491 29.5718 118.483 32.7363 114.97C30.0566 119.242 28.5251 124.134 28.2902 129.172C29.2604 129.778 30.2755 130.309 31.3267 130.76C34.4857 132.086 37.8539 132.843 41.2761 132.996C43.1206 126.849 46.3042 121.187 50.598 116.418C47.5036 121.355 45.9475 127.1 46.1277 132.924C49.9448 132.594 53.7056 131.787 57.3226 130.524C62.7536 128.655 68.0251 125.864 71.7809 121.523C75.8457 116.824 77.8491 110.624 78.496 104.443C79.1428 98.2663 78.5346 92.0322 77.9215 85.8511C77.6318 82.9054 80.0842 79.5155 79.7945 76.5699H79.6014C78.3125 74.8025 76.9994 72.9916 76.367 70.8958C75.7394 68.8049 75.9036 66.3373 77.347 64.6906C78.1557 63.8302 79.1762 63.1974 80.3063 62.8556C80.4125 62.7204 80.5283 62.59 80.649 62.4596C82.8349 60.1372 85.4076 58.2124 88.2523 56.7711C86.2006 58.3212 84.8296 60.0741 84.1924 61.885C85.9689 61.4938 87.7454 61.1043 89.5219 60.7164C90.1156 60.0864 90.7408 59.4868 91.395 58.92C92.346 58.0942 92.6598 58.0315 93.7942 57.254C92.8783 58.06 92.1683 59.0732 91.7232 60.2093C94.0066 59.6347 96.29 58.7703 97.4776 56.8049C99.4472 53.555 97.1059 49.1703 93.8377 47.2291C91.4603 45.8857 88.721 45.3238 86.0069 45.6227C83.2928 45.9217 80.7414 47.0664 78.7132 48.8951C73.9871 45.4134 67.2576 45.4713 62.0005 48.0742C58.5298 49.8694 55.5401 52.4709 53.282 55.6605C54.5919 55.4923 55.9104 55.4004 57.2309 55.3852C55.3721 55.6573 53.602 56.3583 52.0607 57.4327C51.3788 58.4917 50.7536 59.5862 50.1876 60.7115C49.8159 61.4504 49.4651 62.1989 49.1352 62.957C47.1125 67.5638 45.7946 72.47 44.4284 77.3183C42.8354 82.9682 41.1265 88.6567 38.1431 93.7126C33.5688 101.4 26.3529 107.159 17.8435 109.914C17.1339 116.302 20.2524 122.551 25.1331 126.834Z" fill="#2F2E41"/>
<path d="M96.849 87.5477L94.2662 86.5775L91.0092 81.3096L79.4078 82.2578L76.5879 87.9063L69.7949 93.0956L72.7656 108.746L77.381 127.756L108.277 123.893L108.244 109.582C108.244 109.582 113.827 98.2761 104.809 94.0395L96.849 87.5477Z" fill="#6C63FF"/>
<path d="M144.472 137.188C143.872 137.429 143.227 137.535 142.582 137.5C141.936 137.464 141.307 137.287 140.737 136.982C140.167 136.677 139.672 136.25 139.284 135.732C138.897 135.215 138.629 134.618 138.497 133.985L104.048 113.134L110.345 105.867L142.227 128.648C143.304 128.497 144.4 128.747 145.306 129.35C146.211 129.954 146.865 130.868 147.141 131.921C147.418 132.973 147.299 134.091 146.807 135.062C146.315 136.033 145.484 136.789 144.472 137.188Z" fill="#FFB6B6"/>
<path d="M92.5695 103.247C92.5695 103.247 90.9232 104.903 95.054 107.628C98.3611 109.809 113.112 120.588 118.341 122.293C118.276 123.061 118.468 123.829 118.887 124.477C119.306 125.124 119.928 125.613 120.656 125.867L125.39 115.46C124.366 113.081 122.726 113.632 121.864 114.171L116.146 109.869L102.105 95.8442L93.7382 102.028L92.5695 103.247Z" fill="#6C63FF"/>
<path d="M78.7978 49.2568C77.1982 51.6179 76.1649 54.3163 75.7782 57.1422C75.3915 59.968 75.6618 62.8449 76.5681 65.5492" fill="#FD6584"/>
<path d="M11.2822 286.453C11.282 286.525 11.296 286.596 11.3235 286.662C11.3509 286.729 11.3912 286.789 11.4421 286.84C11.4929 286.891 11.5534 286.932 11.6199 286.959C11.6864 286.986 11.7576 287 11.8296 287H140.739C140.885 287 141.024 286.943 141.126 286.84C141.229 286.737 141.287 286.598 141.287 286.453C141.287 286.308 141.229 286.168 141.126 286.066C141.024 285.963 140.885 285.905 140.739 285.905H11.8296C11.7576 285.905 11.6864 285.919 11.6199 285.946C11.5534 285.974 11.4929 286.014 11.4421 286.065C11.3912 286.116 11.3509 286.176 11.3235 286.243C11.296 286.309 11.282 286.381 11.2822 286.453Z" fill="#CCCCCC"/>
<path d="M60.397 162.019C60.0758 162.133 59.8125 162.369 59.665 162.676C59.5175 162.983 59.4977 163.336 59.6101 163.657L77.57 215.437C77.6831 215.758 77.9191 216.022 78.226 216.169C78.533 216.317 78.886 216.337 79.2075 216.224L183.71 179.548C184.031 179.434 184.294 179.198 184.442 178.891C184.589 178.584 184.609 178.231 184.497 177.909L166.537 126.13C166.424 125.808 166.188 125.545 165.88 125.397C165.573 125.25 165.22 125.23 164.899 125.343L60.397 162.019Z" fill="#E6E6E6"/>
<path d="M86.8478 208.751C84.7912 208.75 82.7853 208.113 81.1056 206.926C79.426 205.739 78.155 204.06 77.4673 202.122L67.6043 174.207C66.7258 171.721 66.8706 168.988 68.0069 166.608C69.1431 164.229 71.1777 162.399 73.6631 161.52L126.48 142.847C136.366 139.363 147.231 139.946 156.689 144.465C166.148 148.985 173.427 157.073 176.932 166.955C177.81 169.441 177.665 172.175 176.529 174.554C175.393 176.933 173.358 178.764 170.873 179.643L90.1505 208.182C89.0899 208.558 87.973 208.751 86.8478 208.751Z" fill="white"/>
<path d="M156.888 153.725L109.596 170.323C108.93 170.557 108.104 169.932 107.751 168.928C107.399 167.923 107.653 166.919 108.32 166.685L155.612 150.087C156.279 149.853 157.104 150.478 157.457 151.483C157.809 152.487 157.555 153.493 156.888 153.725Z" fill="#E6E6E6"/>
<path d="M160.546 164.155L113.254 180.753C112.588 180.986 111.762 180.361 111.41 179.357C111.057 178.352 111.312 177.348 111.978 177.114L159.27 160.516C159.937 160.282 160.763 160.907 161.115 161.912C161.467 162.917 161.213 163.921 160.546 164.155Z" fill="#E6E6E6"/>
<path d="M103.197 175.998C103.705 177.429 103.951 178.94 103.925 180.459C103.915 181.154 103.847 181.846 103.72 182.53C103.317 184.738 102.338 186.8 100.883 188.508C99.4271 190.216 97.5466 191.509 95.4312 192.257C93.3157 193.005 91.0403 193.181 88.8351 192.767C86.6299 192.354 84.573 191.365 82.8725 189.9C82.7007 189.753 82.5336 189.602 82.3709 189.445C80.9821 188.114 79.9126 186.485 79.2429 184.681C78.5732 182.878 78.3205 180.946 78.5038 179.03C78.6871 177.115 79.3017 175.266 80.3014 173.622C81.3011 171.978 82.6601 170.582 84.2762 169.538C85.8924 168.494 87.7238 167.83 89.6331 167.596C91.5424 167.361 93.4799 167.563 95.3004 168.184C97.121 168.806 98.7771 169.831 100.145 171.185C101.512 172.538 102.556 174.183 103.197 175.998Z" fill="#E4E4E4"/>
<path d="M91.7161 182.191C93.0611 182.191 94.1515 181.1 94.1515 179.754C94.1515 178.409 93.0611 177.318 91.7161 177.318C90.3711 177.318 89.2808 178.409 89.2808 179.754C89.2808 181.1 90.3711 182.191 91.7161 182.191Z" fill="#FD6584"/>
<path d="M82.3711 189.445C82.9963 187.994 83.7353 185.779 85.447 186.586C86.2927 186.952 87.8071 188.067 88.4221 186.771L93.2372 176.688C93.3285 176.5 93.4564 176.332 93.6135 176.194C93.7705 176.056 93.9536 175.951 94.1518 175.885C94.35 175.819 94.5595 175.793 94.7678 175.809C94.9762 175.825 95.1792 175.883 95.365 175.978L103.925 180.459C103.915 181.154 103.847 181.846 103.72 182.53L82.8726 189.9L82.3711 189.445Z" fill="#3F3D56"/>
<path d="M84.8562 159.669C84.2538 159.435 83.7101 159.071 83.2634 158.604C82.8167 158.137 82.4778 157.578 82.2707 156.965C82.0635 156.353 81.9931 155.703 82.0644 155.06C82.1356 154.417 82.3469 153.798 82.6833 153.246L71.7852 114.473L81.3469 113.474L89.0527 151.901C89.9423 152.527 90.5713 153.459 90.8203 154.518C91.0693 155.578 90.9212 156.692 90.4039 157.65C89.8866 158.607 89.0362 159.342 88.0137 159.714C86.9912 160.086 85.8678 160.07 84.8562 159.669Z" fill="#FFB6B6"/>
<path d="M70.1729 93.1892C70.1729 93.1892 67.839 93.2731 68.9926 98.0862C69.9162 101.939 73.308 126.111 75.9599 130.931C75.3872 131.447 75.0024 132.139 74.8661 132.898C74.7298 133.657 74.8498 134.44 75.2072 135.123L85.7745 130.763C86.6521 128.326 85.9725 126.113 84.9743 125.917L83.7397 118.867L81.9202 95.2185L71.8588 93.0986L70.1729 93.1892Z" fill="#6C63FF"/>
<path d="M165.366 195.206L150.752 195.811C150.439 195.825 150.128 195.768 149.841 195.644C149.554 195.52 149.299 195.333 149.095 195.096C148.893 194.866 148.747 194.593 148.666 194.297C148.585 194.002 148.571 193.692 148.627 193.391C149.749 187.274 149.422 180.979 147.673 175.01C147.538 174.554 147.565 174.065 147.75 173.626C147.936 173.188 148.267 172.827 148.688 172.606C154.674 169.495 160.283 169.337 165.358 172.136C165.624 172.281 165.856 172.482 166.036 172.725C166.217 172.968 166.342 173.248 166.403 173.544C167.724 180.057 168.041 186.733 167.342 193.341C167.294 193.839 167.067 194.302 166.704 194.644C166.34 194.987 165.865 195.187 165.366 195.206Z" fill="#6C63FF"/>
<path d="M164.747 185.638L153.573 186.101C153.435 186.107 153.298 186.085 153.168 186.038C153.039 185.991 152.92 185.918 152.818 185.825C152.717 185.732 152.635 185.619 152.577 185.494C152.519 185.369 152.486 185.234 152.48 185.096C152.475 184.958 152.496 184.821 152.544 184.691C152.591 184.562 152.664 184.443 152.757 184.341C152.85 184.24 152.963 184.158 153.088 184.1C153.213 184.042 153.348 184.01 153.486 184.004L164.661 183.541C164.798 183.535 164.936 183.557 165.065 183.604C165.194 183.652 165.313 183.724 165.414 183.817C165.516 183.911 165.598 184.023 165.656 184.148C165.714 184.273 165.746 184.408 165.752 184.546C165.758 184.684 165.736 184.821 165.689 184.951C165.642 185.08 165.569 185.199 165.476 185.3C165.383 185.402 165.27 185.484 165.145 185.542C165.02 185.6 164.885 185.632 164.747 185.638Z" fill="white"/>
<path d="M164.596 181.961L153.421 182.424C153.143 182.435 152.872 182.336 152.667 182.147C152.463 181.959 152.341 181.697 152.33 181.419C152.318 181.141 152.417 180.869 152.606 180.664C152.794 180.46 153.056 180.338 153.334 180.327L164.509 179.864C164.787 179.852 165.058 179.952 165.263 180.14C165.467 180.329 165.589 180.591 165.6 180.869C165.612 181.147 165.513 181.418 165.324 181.623C165.136 181.828 164.874 181.949 164.596 181.961Z" fill="white"/>
<path d="M432.65 80.8487L418.147 78.946C417.837 78.906 417.54 78.7963 417.278 78.6252C417.017 78.454 416.798 78.2259 416.637 77.9579C416.477 77.6963 416.379 77.4021 416.35 77.0972C416.321 76.7924 416.361 76.4848 416.467 76.1977C418.618 70.3622 419.372 64.104 418.668 57.9245C418.613 57.4517 418.724 56.9745 418.981 56.5741C419.239 56.1738 419.627 55.8751 420.08 55.729C426.51 53.6875 432.063 54.4914 436.585 58.1174C436.822 58.3053 437.016 58.5427 437.152 58.8131C437.288 59.0836 437.364 59.3804 437.373 59.6831C437.562 66.3257 436.733 72.958 434.915 79.3496C434.783 79.8312 434.48 80.2485 434.063 80.5241C433.647 80.7998 433.145 80.9151 432.65 80.8487Z" fill="#6C63FF"/>
<path d="M433.676 71.3158L422.587 69.861C422.45 69.843 422.318 69.7984 422.199 69.7295C422.079 69.6607 421.975 69.569 421.891 69.4597C421.807 69.3504 421.745 69.2256 421.71 69.0925C421.674 68.9594 421.665 68.8206 421.683 68.684C421.701 68.5473 421.745 68.4155 421.814 68.2962C421.883 68.1768 421.975 68.0721 422.084 67.9882C422.193 67.9042 422.318 67.8426 422.451 67.8069C422.584 67.7712 422.723 67.762 422.859 67.7799L433.948 69.2348C434.224 69.271 434.474 69.4153 434.644 69.636C434.813 69.8568 434.888 70.1358 434.852 70.4118C434.816 70.6877 434.672 70.938 434.451 71.1076C434.23 71.2771 433.951 71.352 433.676 71.3158Z" fill="white"/>
<path d="M434.154 67.6662L423.065 66.2113C422.928 66.1936 422.796 66.1491 422.677 66.0804C422.557 66.0116 422.452 65.9199 422.368 65.8106C422.284 65.7012 422.222 65.5764 422.186 65.4431C422.151 65.3099 422.141 65.1709 422.159 65.0341C422.177 64.8972 422.222 64.7653 422.291 64.6458C422.36 64.5263 422.452 64.4216 422.561 64.3377C422.671 64.2537 422.796 64.1922 422.929 64.1566C423.062 64.121 423.201 64.1121 423.338 64.1303L434.427 65.5851C434.564 65.6028 434.696 65.6473 434.815 65.7161C434.935 65.7848 435.04 65.8765 435.124 65.9859C435.208 66.0952 435.27 66.2201 435.306 66.3533C435.342 66.4866 435.351 66.6256 435.333 66.7624C435.315 66.8992 435.27 67.0311 435.201 67.1506C435.132 67.2701 435.04 67.3749 434.931 67.4588C434.821 67.5428 434.696 67.6043 434.563 67.6399C434.43 67.6755 434.291 67.6844 434.154 67.6662Z" fill="white"/>
<path d="M239.467 108.966H234.637V104.136C234.637 102.977 234.177 101.865 233.358 101.045C232.538 100.226 231.427 99.7651 230.268 99.7651C229.109 99.7651 227.998 100.226 227.179 101.045C226.359 101.865 225.899 102.977 225.899 104.136V108.966H221.07C219.911 108.966 218.8 109.427 217.98 110.246C217.161 111.066 216.701 112.178 216.701 113.337C216.701 114.496 217.161 115.608 217.98 116.427C218.8 117.247 219.911 117.707 221.07 117.707H225.899V122.538C225.899 123.697 226.359 124.809 227.179 125.628C227.998 126.448 229.109 126.908 230.268 126.908C231.427 126.908 232.538 126.448 233.358 125.628C234.177 124.809 234.637 123.697 234.637 122.538V117.707H239.467C240.625 117.707 241.737 117.247 242.556 116.427C243.375 115.608 243.836 114.496 243.836 113.337C243.836 112.178 243.375 111.066 242.556 110.246C241.737 109.427 240.625 108.966 239.467 108.966Z" fill="white"/>
<path d="M395.854 19.5686C398.397 19.5686 400.458 17.5065 400.458 14.9628C400.458 12.419 398.397 10.3569 395.854 10.3569C393.311 10.3569 391.25 12.419 391.25 14.9628C391.25 17.5065 393.311 19.5686 395.854 19.5686Z" fill="#3F3D56"/>
<path d="M113.006 149.764C115.549 149.764 117.61 147.702 117.61 145.159C117.61 142.615 115.549 140.553 113.006 140.553C110.463 140.553 108.401 142.615 108.401 145.159C108.401 147.702 110.463 149.764 113.006 149.764Z" fill="#3F3D56"/>
</g>
<defs>
<clipPath id="clip0_194_644">
<rect width="455" height="287" fill="white"/>
</clipPath>
</defs>
</svg>
