<svg width="414" height="327" viewBox="0 0 414 327" fill="none" xmlns="http://www.w3.org/2000/svg">
<path d="M332.713 312.843V277.176C332.714 276.454 333 275.762 333.508 275.252C334.016 274.741 334.705 274.454 335.423 274.453H362.234C362.952 274.454 363.641 274.741 364.149 275.252C364.657 275.762 364.943 276.454 364.944 277.176V312.843C364.943 313.565 364.657 314.257 364.149 314.768C363.641 315.278 362.952 315.565 362.234 315.566H335.423C334.705 315.565 334.016 315.278 333.508 314.768C333 314.257 332.714 313.565 332.713 312.843Z" fill="#E6E6E6"/>
<path d="M334.77 302.07V279.14C334.77 278.464 335.038 277.816 335.514 277.338C335.99 276.86 336.635 276.591 337.308 276.59H360.349C361.022 276.591 361.667 276.86 362.143 277.338C362.619 277.816 362.887 278.464 362.888 279.14V310.879C362.887 311.555 362.619 312.204 362.143 312.682C361.667 313.16 361.022 313.429 360.349 313.429H346.075C343.078 313.426 340.204 312.228 338.085 310.099C335.965 307.969 334.773 305.082 334.77 302.07Z" fill="white"/>
<path d="M338.5 285.538C338.501 284.878 338.762 284.244 339.227 283.777C339.692 283.31 340.323 283.047 340.98 283.046H356.964C357.622 283.046 358.253 283.309 358.718 283.776C359.183 284.244 359.444 284.877 359.444 285.538C359.444 286.199 359.183 286.833 358.718 287.3C358.253 287.768 357.622 288.03 356.964 288.03H340.98C340.323 288.029 339.692 287.767 339.227 287.3C338.762 286.832 338.501 286.199 338.5 285.538Z" fill="#E6E6E6"/>
<path d="M338.5 293.291C338.501 292.63 338.762 291.997 339.227 291.529C339.692 291.062 340.323 290.8 340.98 290.799H356.964C357.622 290.799 358.253 291.061 358.718 291.529C359.183 291.996 359.444 292.63 359.444 293.291C359.444 293.952 359.183 294.585 358.718 295.053C358.253 295.52 357.622 295.783 356.964 295.783H340.98C340.323 295.782 339.692 295.519 339.227 295.052C338.762 294.585 338.501 293.951 338.5 293.291Z" fill="#E6E6E6"/>
<path d="M338.5 301.043C338.501 300.383 338.762 299.749 339.227 299.282C339.692 298.815 340.323 298.552 340.98 298.551H356.964C357.622 298.551 358.253 298.814 358.718 299.281C359.183 299.748 359.444 300.382 359.444 301.043C359.444 301.704 359.183 302.338 358.718 302.805C358.253 303.273 357.622 303.535 356.964 303.535H340.98C340.323 303.534 339.692 303.272 339.227 302.804C338.762 302.337 338.501 301.704 338.5 301.043Z" fill="#E6E6E6"/>
<path d="M337.683 128.056C327.585 144.621 317.525 177.449 303.51 178.602C284.7 180.149 269.338 147.018 269.338 128.056C269.338 118.95 272.938 110.218 279.347 103.779C285.755 97.3404 294.447 93.7231 303.51 93.7231C322.383 93.7231 347.54 111.886 337.683 128.056Z" fill="#CCCCCC"/>
<path d="M308.196 184.616C304.975 184.616 301.786 185.254 298.81 186.492C295.834 187.73 293.13 189.545 290.853 191.834C288.575 194.122 286.769 196.838 285.536 199.828C284.303 202.818 283.669 206.022 283.669 209.258L298.55 284.292V318.272C296.982 318.645 295.585 319.539 294.584 320.809C293.584 322.079 293.04 323.651 293.039 325.27H306.267V284.292H315.086V318.165C313.398 318.428 311.859 319.289 310.747 320.592C309.635 321.895 309.024 323.554 309.023 325.27H322.802V284.292L332.723 209.258C332.723 206.022 332.089 202.818 330.856 199.828C329.623 196.838 327.817 194.122 325.539 191.834C323.262 189.545 320.558 187.73 317.582 186.492C314.606 185.254 311.417 184.616 308.196 184.616Z" fill="#CCCCCC"/>
<path d="M238.055 203.751C236.22 201.909 232.903 200.675 229.103 200.675C223.319 200.675 218.631 203.526 218.631 207.043C218.631 210.56 223.319 213.411 229.103 213.411C231.779 213.471 234.418 212.775 236.72 211.404L236.717 211.437L294.365 214.296L295.133 206.582L238.055 203.751Z" fill="#CCCCCC"/>
<path d="M329.008 266.173C327.673 268.407 327.281 271.939 328.198 275.644C329.595 281.283 333.481 285.166 336.878 284.316C340.275 283.467 341.897 278.208 340.5 272.569C339.912 269.946 338.603 267.541 336.723 265.627L336.755 265.622L325.598 208.727L317.962 209.84L329.008 266.173Z" fill="#CCCCCC"/>
<path d="M311.121 113.397C311.883 110.219 309.434 107.319 306.552 106.352C302.743 105.074 298.762 106.868 295.066 107.684C293.16 108.105 291.141 108.316 289.261 107.662C287.858 107.141 286.644 106.206 285.78 104.98C283.73 102.15 283.626 98.5467 284.702 95.3111C286.8 89.0007 292.718 84.4048 299.08 83.0562C306.711 81.4388 314.097 85.2718 320.962 88.1033L327.587 90.8361C329.615 91.6727 331.688 92.4441 333.65 93.4318C336.801 95.018 340.375 98.1787 339.081 102.147C338.749 103.165 340.345 103.601 340.676 102.588C341.809 99.1136 339.774 95.6138 337.053 93.5649C335.536 92.4931 333.893 91.6127 332.161 90.9437C330.195 90.1132 328.216 89.3122 326.243 88.4984C322.159 86.814 318.097 85.0557 313.974 83.4702C310.275 82.0476 306.369 80.8847 302.368 81.0018C298.985 81.1243 295.678 82.0418 292.713 83.6807C289.747 85.3195 287.204 87.634 285.29 90.4385C283.153 93.6255 281.883 97.5696 282.529 101.422C283.047 104.513 285.029 107.533 287.898 108.885C292.215 110.919 296.716 108.745 301.024 107.884C303.095 107.47 305.407 107.351 307.269 108.511C308.753 109.434 309.962 111.138 309.527 112.955C309.278 113.994 310.872 114.437 311.121 113.397Z" fill="#3F3D56"/>
<path d="M226.039 206.773C220.187 206.832 214.34 206.424 208.553 205.554C202.495 204.524 199.673 202.991 199.673 200.73L199.677 200.64L209.609 124.645L204.673 110.429C204.404 109.67 204.324 108.857 204.438 108.061C204.553 107.264 204.859 106.507 205.331 105.856C205.79 105.192 206.407 104.654 207.125 104.29C207.844 103.925 208.641 103.746 209.446 103.769L242.41 104.114C243.195 104.122 243.968 104.316 244.665 104.682C245.361 105.047 245.962 105.572 246.418 106.215C246.875 106.858 247.173 107.6 247.289 108.381C247.406 109.161 247.337 109.959 247.088 110.708L242.467 124.636L252.403 200.635V200.671C252.404 203.12 249.225 204.719 242.399 205.731C236.975 206.444 231.509 206.792 226.039 206.773ZM209.334 104.875C208.724 104.875 208.123 105.022 207.582 105.306C207.04 105.589 206.575 105.999 206.226 106.502C205.859 107.009 205.62 107.599 205.531 108.219C205.442 108.84 205.504 109.473 205.714 110.064L210.736 124.528L210.719 124.659L200.774 200.742L200.774 200.76C200.775 201.815 202.156 203.343 208.737 204.462C214.463 205.322 220.249 205.724 226.039 205.665C231.455 205.684 236.867 205.34 242.238 204.635C249.729 203.525 251.301 201.882 251.3 200.701L241.342 124.527L246.043 110.357C246.236 109.774 246.29 109.153 246.199 108.545C246.108 107.937 245.876 107.359 245.521 106.858C245.165 106.357 244.697 105.948 244.155 105.664C243.612 105.379 243.01 105.228 242.398 105.221L209.427 104.876C209.396 104.875 209.365 104.875 209.334 104.875Z" fill="#3F3D56"/>
<path opacity="0.5" d="M244.834 191.421H207.244L213.203 150.938L213.365 149.822L215.848 132.969C215.999 131.941 217.177 132.739 218.01 132.123C223.182 128.297 228.415 128.186 233.694 131.874C234.51 132.444 235.637 131.777 235.789 132.763L238.397 149.668L238.649 151.303L244.834 191.421Z" fill="#6C63FF"/>
<path d="M240.195 197.09H211.844C211.1 197.09 210.366 196.929 209.69 196.618C209.014 196.307 208.413 195.854 207.927 195.288C207.442 194.723 207.083 194.059 206.876 193.342C206.669 192.625 206.618 191.871 206.727 191.132L215.01 134.856C215.053 134.568 215.17 134.297 215.351 134.069C215.532 133.842 215.769 133.666 216.039 133.561C216.309 133.455 216.601 133.423 216.887 133.467C217.174 133.512 217.443 133.632 217.668 133.814C222.717 137.878 228.219 137.786 234.021 133.544C234.246 133.379 234.51 133.275 234.787 133.242C235.064 133.21 235.344 133.25 235.601 133.359C235.863 133.467 236.093 133.642 236.268 133.866C236.443 134.089 236.558 134.355 236.6 134.637L245.307 191.097C245.421 191.838 245.374 192.595 245.17 193.316C244.965 194.037 244.608 194.705 244.123 195.275C243.637 195.844 243.034 196.301 242.357 196.614C241.679 196.928 240.941 197.09 240.195 197.09Z" fill="#6C63FF"/>
<path d="M228.787 190.492H212.679V191.402H228.787V190.492Z" fill="white"/>
<path d="M228.787 185.032H212.679V185.942H228.787V185.032Z" fill="white"/>
<path d="M228.787 179.572H212.679V180.482H228.787V179.572Z" fill="white"/>
<path d="M228.787 174.112H212.679V175.022H228.787V174.112Z" fill="white"/>
<path d="M228.787 168.651H212.679V169.561H228.787V168.651Z" fill="white"/>
<path d="M239.408 154.328C238.159 155.574 236.656 156.534 235.003 157.142C233.349 157.75 231.585 157.991 229.83 157.85C227.861 157.61 225.961 156.971 224.246 155.97C222.43 154.992 220.672 153.823 218.661 153.277C216.9 152.799 214.812 152.735 213.299 153.918C213.176 154.014 213.025 154.069 212.868 154.073C212.712 154.077 212.558 154.031 212.43 153.941L212.602 152.758C213.442 152.211 214.384 151.844 215.372 151.679C216.359 151.514 217.369 151.554 218.34 151.798C222.38 152.617 225.446 155.975 229.585 156.457C231.371 156.659 233.178 156.412 234.846 155.739C236.513 155.065 237.987 153.986 239.137 152.599L239.141 152.594L239.408 154.328Z" fill="white"/>
<path d="M125.483 27.349C124.923 39.5693 115.592 48.7812 103.437 49.4993C90.2927 50.2758 78.5771 41.7978 81.3899 27.349C84.5223 11.2589 91.4909 7.55847 103.437 5.19879C117.436 2.43349 126.088 14.1453 125.483 27.349Z" fill="#2F2E41"/>
<path d="M169.958 113.046C169.256 113.466 168.472 113.726 167.659 113.808C166.847 113.89 166.027 113.793 165.256 113.522C164.485 113.251 163.783 112.814 163.199 112.241C162.615 111.668 162.163 110.973 161.874 110.206L136.092 115.234L110.877 104.861L117.314 94.5137L136.112 103.983L165.485 102.782C166.801 102.381 168.217 102.479 169.465 103.057C170.714 103.635 171.708 104.653 172.259 105.918C172.81 107.183 172.88 108.608 172.456 109.921C172.032 111.235 171.143 112.347 169.958 113.046Z" fill="#FFB6B6"/>
<path d="M90.6754 92.0369C90.6754 92.0369 88.9449 94.4376 94.6333 97.0407C99.1873 99.1247 123.647 112.422 130.507 113.531C130.575 114.507 130.965 115.433 131.615 116.162C132.265 116.89 133.137 117.381 134.095 117.557L137.968 103.58C136.224 100.8 134.285 101.812 133.315 102.658L125.787 96.6995L105.069 83.5698L91.8956 90.2793L90.6754 92.0369Z" fill="#F2F2F2"/>
<path d="M126.585 61.1282L116.955 59.4795L99.2872 67.5937L89.3662 205.479L120.522 191.003C125.543 188.67 131.226 188.202 136.558 189.685C137.477 189.94 138.445 189.962 139.374 189.748C140.303 189.534 141.164 189.091 141.88 188.459C142.596 187.827 143.145 187.026 143.476 186.128C143.807 185.23 143.911 184.263 143.777 183.315L126.585 61.1282Z" fill="#F2F2F2"/>
<path d="M97.7012 313.23H105.263L108.861 283.929H97.7012V313.23Z" fill="#FFB6B6"/>
<path d="M93.71 326.392H99.1324L100.1 321.249L102.579 326.392H116.961C117.65 326.392 118.321 326.171 118.877 325.761C119.432 325.35 119.842 324.772 120.047 324.111C120.252 323.45 120.242 322.74 120.017 322.085C119.792 321.43 119.365 320.865 118.798 320.472L107.313 312.503V307.303L95.2331 308.027L93.71 326.392Z" fill="#2F2E41"/>
<path d="M60.0186 297.065L66.1178 301.555L86.2575 280.056L77.2558 273.429L60.0186 297.065Z" fill="#FFB6B6"/>
<path d="M49.0566 305.312L53.4306 308.532L57.237 304.958L56.2108 310.579L67.8116 319.119C68.3677 319.528 69.0394 319.748 69.7288 319.747C70.4181 319.746 71.089 319.523 71.6435 319.111C72.198 318.7 72.607 318.121 72.8108 317.459C73.0146 316.798 73.0026 316.088 72.7765 315.434L68.2005 302.186L71.2595 297.991L61.0892 291.402L49.0566 305.312Z" fill="#2F2E41"/>
<path d="M125.406 178.907C124.987 184.743 117.932 206.041 117.932 206.041L116.67 218.921L113.077 255.619L109.191 295.279C103.381 305.706 93.4163 298.601 93.4163 298.601V291.956C93.4163 291.956 92.6392 285.959 91.8565 278.356C90.6991 267.176 89.5251 252.518 90.7597 248.298C90.638 247.727 90.546 247.151 90.4841 246.57C89.2164 236.691 86.1299 192.402 90.5392 187.667C83.8843 181.006 79.84 172.16 79.1466 162.748C79.0474 161.38 78.9647 159.946 78.9151 158.457C78.5789 149.043 84.978 138.012 87.4803 134.091C88.0866 133.139 87.7586 131.566 87.7586 131.566L124.406 146.175L125.191 147.249V151.828L125.406 178.907Z" fill="#35323E"/>
<path d="M116.67 218.921L113.076 255.619L91.856 278.356L81.9129 289.01C70.9833 293.717 67.3896 281.983 67.3896 281.983L71.4187 276.717C71.4187 276.717 82.7287 257.141 90.4836 246.57C92.6277 243.652 94.5016 241.415 95.7859 240.473C98.685 238.358 107.443 226.862 115.667 215.632L116.67 218.921Z" fill="#35323E"/>
<path d="M78.1093 132.952C78.1483 133.767 78.3157 134.571 78.6053 135.333C78.6384 135.427 78.6715 135.516 78.7101 135.61C79.3901 137.243 80.5977 138.599 82.1383 139.459C82.5918 139.715 83.0701 139.925 83.5658 140.084L87.8595 140.777L124.782 146.707L126.265 142.228L123.47 135.206L125.322 129.17L125.574 94.0173C129.821 85.6276 130.675 77.7327 125.741 70.6822V70.6379L119.034 59.8895L114.569 53.0949L100.25 52.6353L98.2159 57.8184L94.1979 60.2328C85.291 65.5821 82.0832 75.378 82.2761 85.8053C85.3461 97.7498 83.0863 111.029 80.799 125.266L78.9305 129.02C78.325 130.238 78.0422 131.592 78.1093 132.952Z" fill="#6C63FF"/>
<path opacity="0.2" d="M78.1084 132.952C78.1474 133.767 78.3148 134.571 78.6044 135.333L82.1374 139.459C82.5909 139.715 83.0692 139.925 83.565 140.084L87.8586 140.777L81.6469 129.042L95.2993 99.0122L78.1084 132.952Z" fill="black"/>
<path d="M111.704 62.7896L98.2154 57.8184L80.5477 65.9326L81.3897 122.595C76.147 126.943 75.0911 133.21 78.8595 141.689L72.0458 193.108C71.9061 194.163 72.0508 195.236 72.4648 196.215C72.8787 197.194 73.5468 198.043 74.3991 198.674C75.2515 199.305 76.2568 199.694 77.3102 199.801C78.3635 199.908 79.4261 199.729 80.387 199.283L93.8291 193.037C103.986 188.318 115.479 187.373 126.264 190.371L111.704 62.7896Z" fill="#F2F2F2"/>
<path d="M89.9637 35.0615C90.5916 39.6633 93.0122 43.8264 96.6936 46.6361C100.375 49.4457 105.016 50.6721 109.597 50.0457C114.178 49.4193 118.324 46.9914 121.124 43.2955C123.924 39.5995 125.149 34.9379 124.53 30.3349L124.497 30.0861C123.774 25.545 121.303 21.4713 117.618 18.7437C113.933 16.0161 109.328 14.8533 104.797 15.5061C100.266 16.159 96.1717 18.5751 93.3978 22.2332C90.6239 25.8914 89.3925 30.4986 89.9691 35.0608L89.9637 35.0615Z" fill="#FFB8B8"/>
<path d="M130.995 28.4565C127.199 29.4103 123.228 29.4103 119.432 28.4565C119.205 27.3178 118.792 26.2249 118.208 25.2226C118.134 26.3297 117.896 27.4196 117.503 28.4565C114.319 30.6744 107.106 29.465 100.13 28.4565V10.7363H113.358C124.556 9.72803 132.682 17.5055 130.995 28.4565Z" fill="#2F2E41"/>
<path d="M97.581 1.8878C96.5752 0.479594 94.5892 -0.134917 92.8071 0.0246476C91.0629 0.261741 89.398 0.90508 87.9452 1.90334C85.4597 3.4417 83.221 5.35018 81.3055 7.56357C79.6534 9.48122 78.2513 12.1386 79.5467 14.3676C80.6275 16.2275 83.2672 16.9466 85.458 16.5328C87.6488 16.1191 89.4803 14.827 91.1763 13.5131C92.8723 12.1992 94.5651 10.7996 96.6581 10.0981L94.9701 9.96429C96.1179 8.91743 97.0764 7.67854 97.8028 6.30266C98.1525 5.61129 98.3159 4.84004 98.277 4.06554C98.2381 3.29105 97.9981 2.54027 97.581 1.8878Z" fill="#2F2E41"/>
<path d="M113.909 13.5054H99.7172C95.8798 13.5054 92.1995 15.037 89.486 17.7632C86.7725 20.4895 85.248 24.187 85.248 28.0425C85.2486 33.6579 87.3331 39.0713 91.0942 43.2249C94.8553 47.3785 100.023 49.974 105.587 50.504L100.681 36.2094L110.153 50.6071H113.909C101.099 39.8677 104.691 27.0439 113.909 13.5054Z" fill="#2F2E41"/>
<path d="M157.758 320.381C155.909 320.4 154.062 320.272 152.234 319.997C150.531 319.708 149.668 319.297 149.668 318.776L149.669 318.766L152.845 294.472L151.245 289.865C151.178 289.672 151.158 289.465 151.187 289.262C151.216 289.059 151.294 288.867 151.413 288.7C151.532 288.534 151.689 288.399 151.871 288.306C152.052 288.214 152.254 288.166 152.458 288.169L162.977 288.279C163.177 288.281 163.374 288.33 163.551 288.423C163.729 288.516 163.882 288.65 163.998 288.814C164.114 288.978 164.19 289.167 164.22 289.366C164.249 289.565 164.232 289.768 164.169 289.959L162.671 294.471L165.847 318.766C165.848 320.043 160.763 320.381 157.758 320.381Z" fill="#F2F2F2"/>
<path d="M156.901 316.962H151.763V317.252H156.901V316.962Z" fill="#CCCCCC"/>
<path d="M156.901 315.22H151.763V315.51H156.901V315.22Z" fill="#CCCCCC"/>
<path d="M156.901 313.478H151.763V313.768H156.901V313.478Z" fill="#CCCCCC"/>
<path d="M156.901 311.736H151.763V312.027H156.901V311.736Z" fill="#CCCCCC"/>
<path d="M156.901 309.995H151.763V310.285H156.901V309.995Z" fill="#CCCCCC"/>
<path d="M203.986 320.381C202.138 320.4 200.291 320.272 198.462 319.997C196.76 319.708 195.896 319.297 195.896 318.776L195.897 318.766L199.073 294.472L197.474 289.865C197.406 289.672 197.387 289.465 197.416 289.262C197.445 289.059 197.522 288.867 197.641 288.7C197.76 288.534 197.917 288.399 198.099 288.306C198.281 288.214 198.482 288.166 198.686 288.169L209.205 288.279C209.405 288.281 209.602 288.33 209.78 288.423C209.957 288.516 210.11 288.65 210.226 288.814C210.343 288.978 210.419 289.167 210.448 289.366C210.478 289.565 210.46 289.768 210.397 289.959L208.9 294.471L212.076 318.766C212.076 320.043 206.991 320.381 203.986 320.381Z" fill="#F2F2F2"/>
<path d="M203.129 316.962H197.991V317.252H203.129V316.962Z" fill="#CCCCCC"/>
<path d="M203.129 315.22H197.991V315.51H203.129V315.22Z" fill="#CCCCCC"/>
<path d="M203.129 313.478H197.991V313.768H203.129V313.478Z" fill="#CCCCCC"/>
<path d="M203.129 311.736H197.991V312.027H203.129V311.736Z" fill="#CCCCCC"/>
<path d="M203.129 309.995H197.991V310.285H203.129V309.995Z" fill="#CCCCCC"/>
<path d="M182.317 320.381C180.468 320.4 178.621 320.272 176.792 319.997C175.09 319.708 174.227 319.297 174.227 318.776L174.227 318.766L177.403 294.472L175.804 289.865C175.736 289.672 175.717 289.465 175.746 289.262C175.775 289.059 175.852 288.867 175.971 288.7C176.09 288.534 176.247 288.399 176.429 288.306C176.611 288.214 176.812 288.166 177.016 288.169L187.535 288.279C187.735 288.281 187.932 288.33 188.11 288.423C188.287 288.516 188.44 288.65 188.556 288.814C188.673 288.978 188.749 289.167 188.778 289.366C188.808 289.565 188.79 289.768 188.727 289.959L187.23 294.471L190.406 318.766C190.407 320.043 185.321 320.381 182.317 320.381Z" fill="#F2F2F2"/>
<path d="M181.459 316.962H176.321V317.252H181.459V316.962Z" fill="#CCCCCC"/>
<path d="M181.459 315.22H176.321V315.51H181.459V315.22Z" fill="#CCCCCC"/>
<path d="M181.459 313.478H176.321V313.768H181.459V313.478Z" fill="#CCCCCC"/>
<path d="M181.459 311.736H176.321V312.027H181.459V311.736Z" fill="#CCCCCC"/>
<path d="M181.459 309.995H176.321V310.285H181.459V309.995Z" fill="#CCCCCC"/>
<path d="M216.483 322.187H206.659V305.641H216.483C217.018 305.64 217.532 305.425 217.911 305.044C218.289 304.663 218.502 304.147 218.502 303.609C218.502 303.07 218.289 302.554 217.911 302.173C217.532 301.792 217.018 301.578 216.483 301.577H148.006C147.471 301.578 146.957 301.792 146.579 302.173C146.2 302.554 145.987 303.07 145.987 303.609C145.987 304.147 146.2 304.663 146.579 305.044C146.957 305.425 147.471 305.64 148.006 305.641H156.385V322.187H148.006C147.471 322.188 146.957 322.402 146.579 322.783C146.2 323.164 145.987 323.681 145.987 324.219C145.987 324.757 146.2 325.274 146.579 325.655C146.957 326.036 147.471 326.25 148.006 326.251H216.483C217.018 326.25 217.532 326.036 217.911 325.655C218.289 325.274 218.502 324.757 218.502 324.219C218.502 323.681 218.289 323.164 217.911 322.783C217.532 322.402 217.018 322.188 216.483 322.187ZM160.43 322.187V305.641H202.614V322.187H160.43Z" fill="#CCCCCC"/>
<path d="M128.368 189.967V154.3C128.369 153.578 128.655 152.886 129.163 152.376C129.671 151.865 130.36 151.578 131.078 151.577H157.889C158.608 151.578 159.296 151.865 159.805 152.376C160.313 152.886 160.598 153.578 160.599 154.3V189.967C160.598 190.689 160.313 191.381 159.805 191.892C159.296 192.402 158.608 192.689 157.889 192.69H131.078C130.36 192.689 129.671 192.402 129.163 191.892C128.655 191.381 128.369 190.689 128.368 189.967Z" fill="#E6E6E6"/>
<path d="M130.425 179.194V156.264C130.426 155.588 130.693 154.94 131.169 154.462C131.645 153.984 132.29 153.715 132.963 153.714H156.005C156.677 153.715 157.323 153.984 157.798 154.462C158.274 154.94 158.542 155.588 158.543 156.264V188.003C158.542 188.679 158.274 189.328 157.798 189.806C157.323 190.284 156.677 190.553 156.005 190.553H141.731C138.733 190.55 135.86 189.352 133.74 187.223C131.62 185.093 130.428 182.206 130.425 179.194Z" fill="white"/>
<path d="M134.155 162.662C134.156 162.002 134.418 161.368 134.883 160.901C135.348 160.434 135.978 160.171 136.636 160.17H152.619C153.277 160.17 153.908 160.433 154.373 160.9C154.838 161.368 155.1 162.001 155.1 162.662C155.1 163.323 154.838 163.957 154.373 164.424C153.908 164.892 153.277 165.154 152.619 165.154H136.636C135.978 165.153 135.348 164.891 134.883 164.424C134.418 163.956 134.156 163.323 134.155 162.662Z" fill="#E6E6E6"/>
<path d="M134.155 170.415C134.156 169.754 134.418 169.121 134.883 168.654C135.348 168.186 135.978 167.924 136.636 167.923H152.619C153.277 167.923 153.908 168.185 154.373 168.653C154.838 169.12 155.1 169.754 155.1 170.415C155.1 171.076 154.838 171.709 154.373 172.177C153.908 172.644 153.277 172.907 152.619 172.907H136.636C135.978 172.906 135.348 172.643 134.883 172.176C134.418 171.709 134.156 171.075 134.155 170.415Z" fill="#E6E6E6"/>
<path d="M134.155 178.167C134.156 177.507 134.418 176.873 134.883 176.406C135.348 175.939 135.978 175.676 136.636 175.675H152.619C153.277 175.675 153.908 175.938 154.373 176.405C154.838 176.872 155.1 177.506 155.1 178.167C155.1 178.828 154.838 179.462 154.373 179.929C153.908 180.397 153.277 180.659 152.619 180.659H136.636C135.978 180.658 135.348 180.396 134.883 179.928C134.418 179.461 134.156 178.828 134.155 178.167Z" fill="#E6E6E6"/>
<path d="M128.823 155.42C128.068 155.106 127.391 154.631 126.84 154.026C126.288 153.421 125.875 152.702 125.629 151.92C125.384 151.138 125.312 150.311 125.42 149.498C125.527 148.685 125.81 147.905 126.25 147.214L106.81 129.471L99.9902 102.967L112.093 101.956L115.793 122.754L134.33 145.677C135.437 146.496 136.207 147.694 136.493 149.045C136.779 150.396 136.562 151.805 135.883 153.006C135.205 154.207 134.111 155.116 132.81 155.561C131.508 156.006 130.09 155.955 128.823 155.42Z" fill="#FFB6B6"/>
<path d="M98.1253 79.0317C98.1253 79.0317 95.1753 79.0756 96.5041 85.2121C97.5678 90.1248 101.603 117.771 104.824 123.956C104.087 124.595 103.583 125.463 103.39 126.422C103.198 127.381 103.329 128.377 103.762 129.253L117.225 124.006C118.398 120.937 116.431 119.984 115.175 119.708L115.421 110.084L113.491 85.5498L100.257 78.9619L98.1253 79.0317Z" fill="#F2F2F2"/>
</svg>
