<svg width="366" height="311" viewBox="0 0 366 311" fill="none" xmlns="http://www.w3.org/2000/svg">
<g clip-path="url(#clip0_195_1166)">
<path d="M189.753 46.1433C190.032 46.9449 190.483 47.6757 191.076 48.2842C191.669 48.8927 192.388 49.3641 193.182 49.6651C193.977 49.9662 194.829 50.0896 195.676 50.0267C196.524 49.9637 197.348 49.716 198.089 49.301L248.521 65.4504L265.212 52.3774L200.162 41.0066C199.381 39.8092 198.187 38.9395 196.806 38.5622C195.426 38.1849 193.955 38.3262 192.672 38.9593C191.389 39.5925 190.383 40.6736 189.845 41.9976C189.307 43.3217 189.274 44.7967 189.753 46.1433Z" fill="#FFB6B6"/>
<path d="M283.162 67.725C283.162 67.725 282.705 66.6063 276.671 69.0404C269.18 72.0617 229.303 70.0419 227.093 59.1874C226.388 59.9144 225.46 60.3864 224.456 60.5291C223.452 60.6718 222.43 60.477 221.549 59.9754L227.783 46.316C231.028 45.2804 232.791 44.5142 233.001 45.8335L242.757 45.2606L282.27 51.9007L283.362 65.5168L283.162 67.725Z" fill="#F2F2F2"/>
<path d="M270.736 54.0303L290.359 52.3345L308.755 60.7295L319.085 203.388L278.546 184.672L261.153 189.476L270.736 54.0303Z" fill="#F2F2F2"/>
<path d="M319.013 303.005L311.57 303.005L308.029 274.344L319.014 274.345L319.013 303.005Z" fill="#FFB6B6"/>
<path d="M320.911 310.208L296.911 310.207V309.904C296.911 307.431 297.896 305.059 299.647 303.31C301.399 301.561 303.775 300.579 306.252 300.578L310.637 297.258L318.816 300.579L320.911 300.579L320.911 310.208Z" fill="#2F2E41"/>
<path d="M290.169 298.323L282.909 299.959L273.131 272.781L283.847 270.366L290.169 298.323Z" fill="#FFB6B6"/>
<path d="M293.61 304.931L270.2 310.208L270.133 309.912C269.587 307.5 270.024 304.97 271.347 302.879C272.67 300.788 274.77 299.307 277.187 298.762L277.187 298.762L280.731 294.559L289.442 296L291.486 295.539L293.61 304.931Z" fill="#2F2E41"/>
<path d="M328.44 127.789C331.929 138.296 331.56 149.701 327.601 161.942L325.908 230.861C328.706 233.935 329.134 261.444 324.824 270.42C319.068 282.406 324.361 284.009 320.292 291.961H308.491L303.036 255.935L302.647 226.734C301.08 223.029 302.367 209.99 302.367 209.99L301.914 182.953L280.634 230.315C290.275 238.553 289.407 265.164 289.566 276.967L292.727 290.894L278.202 292.191L271.792 273.303L264.585 261.664C260.912 241.041 259.824 225.901 262.955 219.717L284.316 140.375L328.44 127.789Z" fill="#2F2E41"/>
<path d="M329.952 124.282L328.006 120.398C325.625 105.668 323.272 91.9292 326.468 79.5712C326.669 68.783 323.329 58.6479 314.055 53.1135L309.871 50.6155L307.754 45.2529L288.253 45.7285L288.195 52.7583L281.211 63.8787V63.9246L281.647 124.437L283.576 130.682L280.666 137.947L282.21 142.581L320.655 136.445L325.126 135.729C325.642 135.564 326.14 135.347 326.612 135.082C328.216 134.193 329.474 132.79 330.182 131.1C330.222 131.003 330.256 130.911 330.291 130.814C330.592 130.025 330.767 129.193 330.807 128.35C330.877 126.943 330.582 125.542 329.952 124.282Z" fill="#3F3D56"/>
<path opacity="0.2" d="M330.807 128.35C330.766 129.193 330.592 130.025 330.29 130.814L326.612 135.082C326.14 135.347 325.642 135.564 325.125 135.729L320.655 136.445L327.123 124.305L312.907 93.2354L330.807 128.35Z" fill="black"/>
<path d="M28.7678 253.879C24.2509 253.925 19.7375 253.613 15.27 252.946C11.1102 252.243 9.00098 251.246 9.00098 249.981L9.00252 249.958L16.7626 190.975L12.8543 179.79C12.6902 179.321 12.6418 178.818 12.7131 178.326C12.7844 177.834 12.9733 177.366 13.2639 176.962C13.5546 176.558 13.9383 176.23 14.3828 176.005C14.8272 175.78 15.3194 175.666 15.8175 175.671L41.519 175.938C42.0081 175.943 42.4891 176.064 42.9227 176.29C43.3563 176.516 43.7303 176.841 44.0142 177.238C44.2981 177.636 44.4839 178.095 44.5563 178.578C44.6288 179.06 44.586 179.554 44.4313 180.017L40.7729 190.974L48.5331 249.958C48.5347 253.058 36.1096 253.879 28.7678 253.879Z" fill="#F2F2F2"/>
<path d="M26.6735 245.576H14.1191V246.28H26.6735V245.576Z" fill="#CCCCCC"/>
<path d="M26.6735 241.347H14.1191V242.052H26.6735V241.347Z" fill="#CCCCCC"/>
<path d="M26.6735 237.119H14.1191V237.823H26.6735V237.119Z" fill="#CCCCCC"/>
<path d="M26.6735 232.89H14.1191V233.595H26.6735V232.89Z" fill="#CCCCCC"/>
<path d="M26.6735 228.662H14.1191V229.366H26.6735V228.662Z" fill="#CCCCCC"/>
<path d="M141.721 253.879C137.204 253.925 132.691 253.613 128.223 252.946C124.063 252.243 121.954 251.246 121.954 249.981L121.956 249.958L129.716 190.975L125.807 179.79C125.643 179.321 125.595 178.818 125.666 178.326C125.738 177.834 125.926 177.366 126.217 176.962C126.508 176.558 126.891 176.23 127.336 176.005C127.78 175.78 128.272 175.666 128.771 175.671L154.472 175.938C154.961 175.943 155.442 176.064 155.876 176.29C156.309 176.516 156.683 176.841 156.967 177.238C157.251 177.636 157.437 178.095 157.509 178.578C157.582 179.06 157.539 179.554 157.384 180.017L153.726 190.974L161.486 249.958C161.488 253.058 149.063 253.879 141.721 253.879Z" fill="#F2F2F2"/>
<path d="M139.627 245.576H127.072V246.28H139.627V245.576Z" fill="#CCCCCC"/>
<path d="M139.627 241.347H127.072V242.052H139.627V241.347Z" fill="#CCCCCC"/>
<path d="M139.627 237.119H127.072V237.823H139.627V237.119Z" fill="#CCCCCC"/>
<path d="M139.627 232.89H127.072V233.595H139.627V232.89Z" fill="#CCCCCC"/>
<path d="M139.627 228.662H127.072V229.366H139.627V228.662Z" fill="#CCCCCC"/>
<path d="M88.7747 253.879C84.2578 253.925 79.7443 253.613 75.2768 252.946C71.1171 252.243 69.0078 251.246 69.0078 249.981L69.0094 249.958L76.7694 190.975L72.8611 179.79C72.697 179.321 72.6486 178.818 72.7199 178.326C72.7912 177.834 72.9802 177.366 73.2708 176.962C73.5614 176.558 73.9452 176.23 74.3896 176.005C74.8341 175.78 75.3262 175.666 75.8244 175.671L101.526 175.938C102.015 175.943 102.496 176.064 102.93 176.29C103.363 176.516 103.737 176.841 104.021 177.238C104.305 177.636 104.491 178.095 104.563 178.578C104.636 179.06 104.593 179.554 104.438 180.017L100.78 190.974L108.54 249.958C108.542 253.058 96.1164 253.879 88.7747 253.879Z" fill="#F2F2F2"/>
<path d="M86.6804 245.576H74.126V246.28H86.6804V245.576Z" fill="#CCCCCC"/>
<path d="M86.6804 241.347H74.126V242.052H86.6804V241.347Z" fill="#CCCCCC"/>
<path d="M86.6804 237.119H74.126V237.823H86.6804V237.119Z" fill="#CCCCCC"/>
<path d="M86.6804 232.89H74.126V233.595H86.6804V232.89Z" fill="#CCCCCC"/>
<path d="M86.6804 228.662H74.126V229.366H86.6804V228.662Z" fill="#CCCCCC"/>
<path d="M172.254 258.262H148.251V218.09H172.254C173.565 218.09 174.822 217.57 175.748 216.645C176.675 215.72 177.196 214.465 177.196 213.157C177.196 211.848 176.675 210.593 175.748 209.668C174.822 208.743 173.565 208.223 172.254 208.223H4.94171C3.63109 208.223 2.37415 208.743 1.4474 209.668C0.520646 210.593 0 211.848 0 213.157C0 214.465 0.520646 215.72 1.4474 216.645C2.37415 217.57 3.63109 218.09 4.94171 218.09H25.4145V258.262H4.94171C3.63109 258.262 2.37415 258.781 1.4474 259.707C0.520647 260.632 0 261.887 0 263.195C0 264.503 0.520647 265.758 1.4474 266.683C2.37415 267.609 3.63109 268.128 4.94171 268.128H172.254C172.903 268.129 173.547 268.002 174.147 267.754C174.747 267.507 175.292 267.144 175.752 266.685C176.211 266.227 176.576 265.683 176.824 265.084C177.073 264.485 177.201 263.843 177.201 263.195C177.201 262.547 177.073 261.905 176.824 261.306C176.576 260.707 176.211 260.163 175.752 259.705C175.292 259.247 174.747 258.883 174.147 258.636C173.547 258.388 172.903 258.261 172.254 258.262ZM35.298 258.262V218.09H138.368V258.262H35.298Z" fill="#CCCCCC"/>
<path d="M168.367 310.274C156.09 310.274 144.64 309.482 136.126 308.044C125.624 306.271 120.519 303.694 120.519 300.166L120.524 300.054L138.958 159.929L129.729 133.518C129.286 132.275 129.154 130.944 129.343 129.638C129.532 128.333 130.037 127.093 130.814 126.027C131.573 124.944 132.589 124.065 133.77 123.469C134.952 122.872 136.263 122.576 137.587 122.608L198.7 123.243C199.995 123.257 201.269 123.576 202.417 124.174C203.566 124.772 204.556 125.633 205.308 126.686C206.06 127.739 206.552 128.954 206.744 130.233C206.936 131.512 206.823 132.819 206.413 134.045L197.774 159.919L216.211 300.057V300.111C216.213 303.915 210.433 306.615 198.541 308.367C186.858 310.089 173.547 310.274 168.367 310.274Z" fill="white"/>
<path d="M168.367 310.274C156.09 310.274 144.64 309.482 136.126 308.044C125.624 306.271 120.519 303.694 120.519 300.166L120.524 300.054L138.958 159.929L129.729 133.518C129.286 132.275 129.154 130.944 129.343 129.638C129.532 128.333 130.037 127.093 130.814 126.027C131.573 124.944 132.589 124.065 133.77 123.469C134.952 122.872 136.263 122.576 137.587 122.608L198.7 123.243C199.995 123.257 201.269 123.576 202.417 124.174C203.566 124.772 204.556 125.633 205.308 126.686C206.06 127.739 206.552 128.954 206.744 130.233C206.936 131.512 206.823 132.819 206.413 134.045L197.774 159.919L216.211 300.057V300.111C216.213 303.915 210.433 306.615 198.541 308.367C186.858 310.089 173.547 310.274 168.367 310.274ZM137.418 124.282C136.389 124.281 135.376 124.528 134.463 125.002C133.551 125.476 132.767 126.163 132.178 127.005C131.559 127.853 131.157 128.84 131.007 129.879C130.856 130.917 130.962 131.977 131.314 132.966L140.675 159.753L140.649 159.95L122.194 300.22C122.197 301.595 124.044 304.304 136.407 306.391C144.83 307.814 156.18 308.598 168.367 308.598C179.078 308.598 190.267 307.892 198.296 306.709C208.552 305.199 214.46 302.814 214.531 300.162L196.059 159.756L204.82 133.516C205.146 132.539 205.237 131.5 205.084 130.482C204.931 129.464 204.54 128.497 203.941 127.659C203.343 126.821 202.555 126.136 201.641 125.66C200.727 125.184 199.713 124.93 198.682 124.919L137.56 124.284C137.513 124.283 137.465 124.282 137.418 124.282Z" fill="#3F3D56"/>
<path opacity="0.5" d="M203.204 283.021H133.53L144.575 208.462L144.876 206.407L149.477 175.367C149.758 173.474 151.942 174.944 153.485 173.809C163.071 166.763 172.771 166.558 182.555 173.35C184.067 174.4 186.156 173.171 186.438 174.989L191.272 206.122L191.739 209.133L203.204 283.021Z" fill="#6C63FF"/>
<path d="M194.605 293.461H142.055C140.678 293.461 139.316 293.165 138.064 292.592C136.811 292.02 135.697 291.184 134.797 290.143C133.897 289.102 133.232 287.879 132.848 286.558C132.464 285.238 132.369 283.85 132.571 282.489L147.924 178.842C148.004 178.312 148.222 177.812 148.557 177.393C148.891 176.975 149.331 176.652 149.831 176.457C150.331 176.262 150.874 176.203 151.404 176.285C151.935 176.367 152.434 176.588 152.852 176.924C162.209 184.408 172.407 184.239 183.162 176.426C183.58 176.122 184.068 175.93 184.582 175.871C185.095 175.811 185.615 175.885 186.091 176.086C186.577 176.285 187.003 176.606 187.327 177.018C187.651 177.431 187.863 177.92 187.942 178.438L204.08 282.424C204.292 283.789 204.205 285.183 203.826 286.511C203.447 287.839 202.785 289.07 201.885 290.118C200.985 291.167 199.868 292.008 198.612 292.585C197.355 293.162 195.988 293.461 194.605 293.461Z" fill="#6C63FF"/>
<path d="M173.46 281.31H143.604V282.986H173.46V281.31Z" fill="white"/>
<path d="M173.46 271.254H143.604V272.93H173.46V271.254Z" fill="white"/>
<path d="M173.46 261.197H143.604V262.873H173.46V261.197Z" fill="white"/>
<path d="M173.46 251.141H143.604V252.817H173.46V251.141Z" fill="white"/>
<path d="M173.46 241.085H143.604V242.761H173.46V241.085Z" fill="white"/>
<path d="M193.147 214.704C190.831 216.999 188.046 218.768 184.981 219.887C181.917 221.007 178.646 221.451 175.393 221.19C171.683 220.855 168.3 219.472 165.043 217.729C161.676 215.927 158.419 213.774 154.692 212.768C151.427 211.888 147.557 211.771 144.753 213.95C144.524 214.127 144.244 214.226 143.954 214.234C143.664 214.242 143.38 214.157 143.142 213.991L143.461 211.813C146.583 209.634 150.378 209.298 154.096 210.044C161.584 211.553 167.267 217.737 174.94 218.626C178.249 218.998 181.6 218.543 184.69 217.303C187.78 216.062 190.513 214.075 192.643 211.519L192.652 211.511L193.147 214.704Z" fill="white"/>
<path d="M366 310.318C366 310.408 365.983 310.496 365.949 310.579C365.914 310.662 365.864 310.737 365.801 310.801C365.737 310.864 365.662 310.914 365.579 310.948C365.496 310.983 365.407 311 365.317 311H0.727857C0.546732 311 0.373023 310.928 0.244948 310.8C0.116873 310.672 0.0449219 310.499 0.0449219 310.318C0.0449219 310.137 0.116873 309.964 0.244948 309.836C0.373023 309.708 0.546732 309.636 0.727857 309.636H365.317C365.407 309.636 365.496 309.653 365.579 309.688C365.662 309.722 365.737 309.772 365.801 309.835C365.864 309.899 365.914 309.974 365.949 310.057C365.983 310.14 366 310.228 366 310.318Z" fill="#CCCCCC"/>
<path d="M290.249 52.3116L309.871 50.6157L328.268 59.0108L338.598 201.669L298.059 182.953L280.666 187.757L290.249 52.3116Z" fill="#F2F2F2"/>
<path d="M193.402 52.1358C195.304 52.1358 196.846 50.5968 196.846 48.6983C196.846 46.7998 195.304 45.2607 193.402 45.2607C191.501 45.2607 189.959 46.7998 189.959 48.6983C189.959 50.5968 191.501 52.1358 193.402 52.1358Z" fill="#6C63FF"/>
<path d="M187.663 93.9591C189.565 93.9591 191.106 92.42 191.106 90.5215C191.106 88.623 189.565 87.084 187.663 87.084C185.761 87.084 184.22 88.623 184.22 90.5215C184.22 92.42 185.761 93.9591 187.663 93.9591Z" fill="#6C63FF"/>
<path d="M169.299 118.595C171.201 118.595 172.742 117.056 172.742 115.157C172.742 113.259 171.201 111.72 169.299 111.72C167.397 111.72 165.855 113.259 165.855 115.157C165.855 117.056 167.397 118.595 169.299 118.595Z" fill="#6C63FF"/>
<path d="M255.26 145.229V108.327C255.261 107.58 255.558 106.864 256.087 106.336C256.616 105.808 257.333 105.511 258.082 105.51H285.998C286.746 105.511 287.463 105.808 287.992 106.336C288.521 106.864 288.819 107.58 288.82 108.327V145.229C288.819 145.976 288.521 146.692 287.992 147.22C287.463 147.748 286.746 148.045 285.998 148.046H258.082C257.333 148.045 256.616 147.748 256.087 147.22C255.558 146.692 255.261 145.976 255.26 145.229Z" fill="#E6E6E6"/>
<path d="M257.401 134.083V110.359C257.402 109.66 257.681 108.989 258.176 108.494C258.672 108 259.343 107.721 260.044 107.721H284.036C284.736 107.721 285.408 108 285.904 108.494C286.399 108.989 286.678 109.66 286.679 110.359V143.197C286.678 143.896 286.399 144.567 285.904 145.061C285.408 145.556 284.736 145.834 284.036 145.835H269.173C266.052 145.831 263.06 144.592 260.853 142.389C258.646 140.186 257.405 137.199 257.401 134.083Z" fill="white"/>
<path d="M261.286 116.979C261.287 116.295 261.559 115.64 262.043 115.156C262.528 114.673 263.184 114.401 263.869 114.4H280.512C281.197 114.4 281.853 114.672 282.338 115.156C282.822 115.639 283.094 116.295 283.094 116.979C283.094 117.662 282.822 118.318 282.338 118.802C281.853 119.285 281.197 119.557 280.512 119.557H263.869C263.184 119.556 262.528 119.284 262.043 118.801C261.559 118.317 261.287 117.662 261.286 116.979Z" fill="#E6E6E6"/>
<path d="M261.286 125C261.287 124.316 261.559 123.661 262.043 123.177C262.528 122.694 263.184 122.422 263.869 122.421H280.512C281.197 122.421 281.853 122.693 282.338 123.177C282.822 123.66 283.094 124.316 283.094 125C283.094 125.683 282.822 126.339 282.338 126.823C281.853 127.306 281.197 127.578 280.512 127.578H263.869C263.184 127.577 262.528 127.305 262.043 126.822C261.559 126.338 261.287 125.683 261.286 125Z" fill="#E6E6E6"/>
<path d="M261.286 133.021C261.287 132.337 261.559 131.682 262.043 131.198C262.528 130.715 263.184 130.443 263.869 130.442H280.512C281.197 130.442 281.853 130.714 282.338 131.198C282.822 131.681 283.094 132.337 283.094 133.021C283.094 133.704 282.822 134.36 282.338 134.844C281.853 135.327 281.197 135.599 280.512 135.599H263.869C263.184 135.598 262.528 135.326 262.043 134.843C261.559 134.359 261.287 133.704 261.286 133.021Z" fill="#E6E6E6"/>
<path d="M278.001 151.595C278.787 151.271 279.492 150.779 280.066 150.153C280.641 149.528 281.071 148.784 281.326 147.974C281.582 147.165 281.656 146.309 281.545 145.468C281.433 144.627 281.138 143.82 280.681 143.105L300.922 124.748L308.023 97.327L295.42 96.2803L291.568 117.798L272.267 141.515C271.114 142.363 270.313 143.602 270.015 145C269.717 146.397 269.943 147.855 270.649 149.098C271.356 150.34 272.495 151.281 273.85 151.741C275.205 152.201 276.682 152.149 278.001 151.595Z" fill="#FFB6B6"/>
<path d="M309.964 72.5634C309.964 72.5634 313.036 72.6088 311.652 78.9577C310.545 84.0405 306.343 112.644 302.989 119.043C303.757 119.704 304.282 120.602 304.482 121.594C304.682 122.586 304.546 123.617 304.095 124.524L290.078 119.094C288.856 115.92 290.904 114.933 292.212 114.648L291.955 104.69L293.965 79.3071L307.745 72.4912L309.964 72.5634Z" fill="#F2F2F2"/>
<path d="M314.094 25.5732C313.44 30.3342 310.919 34.6413 307.086 37.5481C303.253 40.455 298.421 41.7237 293.651 41.0757C288.881 40.4276 284.564 37.9157 281.649 34.0919C278.733 30.2681 277.458 25.4452 278.102 20.683L278.137 20.4256C278.89 15.7272 281.462 11.5125 285.299 8.69051C289.137 5.86853 293.931 4.66549 298.649 5.3409C303.367 6.01631 307.63 8.51604 310.518 12.3009C313.406 16.0857 314.689 20.8523 314.088 25.5724L314.094 25.5732Z" fill="#FFB8B8"/>
<path d="M309.471 34.912C310.404 33.0206 311.362 30.99 311.1 28.8982C310.838 26.8063 308.783 24.8069 306.765 25.4286C305.559 25.8003 304.647 26.9898 303.385 27.0507C301.65 27.1344 300.655 25.1516 300.115 23.503L297.915 16.7889C295.802 18.4325 293.352 19.5904 290.74 20.1797C288.127 20.7691 285.416 20.7754 282.801 20.1983C280.759 19.7321 278.695 18.8231 277.497 17.1071C276.299 15.3911 276.306 12.7292 277.949 11.4316C278.755 10.7953 279.828 10.5536 280.598 9.87465C281.075 9.45347 281.405 8.88995 281.537 8.26748C281.669 7.64501 281.596 6.99666 281.33 6.41838C281.065 5.84009 280.619 5.3626 280.061 5.05655C279.502 4.75051 278.859 4.63217 278.228 4.71906L283.767 4.02792L282.117 1.04793C283.306 1.98382 284.961 2.10968 286.451 1.84179C287.942 1.5739 289.345 0.961315 290.803 0.55279C297.802 -1.40841 305.937 2.00156 309.435 8.36334C310.798 7.90893 312.267 7.87873 313.648 8.27674C315.029 8.67474 316.256 9.48216 317.167 10.592C318.649 12.4709 319.053 14.9783 319.11 17.3696C319.218 22.0847 318.188 26.7565 316.108 30.9908C315.511 32.3357 314.654 33.5497 313.585 34.5627C313.047 35.065 312.406 35.4437 311.706 35.6722C311.006 35.9008 310.264 35.9736 309.533 35.8857" fill="#2F2E41"/>
</g>
<defs>
<clipPath id="clip0_195_1166">
<rect width="366" height="311" fill="white"/>
</clipPath>
</defs>
</svg>
